<?xml version="1.0" encoding="UTF-8" standalone="no"?>
<svg
   id="Layer_1"
   data-name="Layer 1"
   viewBox="0 0 383.33875 399.36126"
   version="1.1"
   width="383.33875"
   height="399.36127"
   xmlns:xlink="http://www.w3.org/1999/xlink"
   xmlns="http://www.w3.org/2000/svg"
   xmlns:svg="http://www.w3.org/2000/svg">
  <defs
     id="defs404">
    <style
       id="style1">
      .cls-1 {
        font-size: 64.56px;
        letter-spacing: .02em;
      }

      .cls-1, .cls-2 {
        fill: #fff6e5;
      }

      .cls-1, .cls-3 {
        font-family: PalmerLakePrint-Regular, PalmerLakePrint-Regular;
      }

      .cls-4 {
        fill: #feb2c3;
      }

      .cls-4, .cls-5, .cls-6, .cls-7, .cls-8, .cls-9, .cls-10, .cls-11, .cls-12, .cls-13, .cls-2, .cls-14, .cls-15, .cls-16, .cls-17, .cls-18, .cls-19, .cls-20, .cls-21 {
        stroke-width: 0px;
      }

      .cls-22 {
        clip-path: url(#clippath-2);
      }

      .cls-23 {
        opacity: .33;
      }

      .cls-5 {
        fill: url(#New_Pattern_2-6);
      }

      .cls-6 {
        fill: #dbe78e;
      }

      .cls-7 {
        fill: none;
      }

      .cls-24 {
        clip-path: url(#clippath-1);
      }

      .cls-8 {
        fill: url(#New_Pattern_2-4);
      }

      .cls-9 {
        fill: #ffccd9;
      }

      .cls-10 {
        fill: #f26489;
      }

      .cls-11 {
        fill: #fff;
      }

      .cls-25 {
        opacity: .75;
      }

      .cls-12 {
        fill: url(#New_Pattern_2-3);
      }

      .cls-13 {
        fill: url(#New_Pattern_2-2);
      }

      .cls-26 {
        clip-path: url(#clippath);
      }

      .cls-14 {
        fill: #96d6dc;
      }

      .cls-15 {
        fill: url(#New_Pattern_2-5);
      }

      .cls-16 {
        fill: url(#New_Pattern_2);
      }

      .cls-3 {
        font-size: 51.11px;
        letter-spacing: -.01em;
      }

      .cls-3, .cls-19 {
        fill: #665e68;
      }

      .cls-17 {
        fill: #c1d731;
      }

      .cls-18 {
        fill: #ffecd4;
      }

      .cls-20 {
        fill: #fff8e3;
      }

      .cls-21 {
        fill: #3cc0cc;
      }
    </style>
    <pattern
       id="New_Pattern_2"
       data-name="New Pattern 2"
       x="0"
       y="0"
       width="898.35"
       height="898.35"
       patternTransform="translate(5162.01 -1502.49) scale(.91 .93)"
       patternUnits="userSpaceOnUse"
       viewBox="0 0 898.35 898.35">
      <g
         id="g402">
        <rect
           class="cls-7"
           width="898.35"
           height="898.35"
           id="rect1" />
        <rect
           class="cls-18"
           x="0"
           y="0"
           width="898.35"
           height="898.35"
           id="rect2" />
        <g
           class="cls-23"
           id="g401">
          <path
             class="cls-11"
             d="M91.72,0h-46.9v46.91h46.9V0ZM46.9,2.09h42.72v42.72h-42.72V2.09Z"
             id="path2" />
          <path
             class="cls-11"
             d="M181.34,0h-46.9v46.91h46.9V0ZM136.53,2.09h42.72v42.72h-42.72V2.09Z"
             id="path3" />
          <path
             class="cls-11"
             d="M270.97,0h-46.9v46.91h46.9V0ZM226.15,2.09h42.72v42.72h-42.72V2.09Z"
             id="path4" />
          <path
             class="cls-11"
             d="M360.59,0h-46.9v46.91h46.9V0ZM315.78,2.09h42.72v42.72h-42.72V2.09Z"
             id="path5" />
          <path
             class="cls-11"
             d="M450.22,0h-46.9v46.91h46.9V0ZM405.41,2.09h42.72v42.72h-42.72V2.09Z"
             id="path6" />
          <path
             class="cls-11"
             d="M46.9,44.82H0v46.91h46.9v-46.91ZM2.09,46.91h42.72v42.72H2.09v-42.72Z"
             id="path7" />
          <path
             class="cls-11"
             d="M136.53,44.82h-46.9v46.91h46.9v-46.91ZM91.72,46.91h42.72v42.72h-42.72v-42.72Z"
             id="path8" />
          <path
             class="cls-11"
             d="M226.15,44.82h-46.9v46.91h46.9v-46.91ZM181.34,46.91h42.72v42.72h-42.72v-42.72Z"
             id="path9" />
          <path
             class="cls-11"
             d="M315.78,44.82h-46.9v46.91h46.9v-46.91ZM270.97,46.91h42.72v42.72h-42.72v-42.72Z"
             id="path10" />
          <path
             class="cls-11"
             d="M405.41,44.82h-46.9v46.91h46.9v-46.91ZM360.59,46.91h42.72v42.72h-42.72v-42.72Z"
             id="path11" />
          <path
             class="cls-11"
             d="M91.72,89.63h-46.9v46.91h46.9v-46.91ZM46.9,91.72h42.72v42.72h-42.72v-42.72Z"
             id="path12" />
          <path
             class="cls-11"
             d="M181.34,89.63h-46.9v46.91h46.9v-46.91ZM136.53,91.72h42.72v42.72h-42.72v-42.72Z"
             id="path13" />
          <path
             class="cls-11"
             d="M270.97,89.63h-46.9v46.91h46.9v-46.91ZM226.15,91.72h42.72v42.72h-42.72v-42.72Z"
             id="path14" />
          <path
             class="cls-11"
             d="M360.59,89.63h-46.9v46.91h46.9v-46.91ZM315.78,91.72h42.72v42.72h-42.72v-42.72Z"
             id="path15" />
          <path
             class="cls-11"
             d="M450.22,89.63h-46.9v46.91h46.9v-46.91ZM405.41,91.72h42.72v42.72h-42.72v-42.72Z"
             id="path16" />
          <path
             class="cls-11"
             d="M46.9,134.45H0v46.91h46.9v-46.91ZM2.09,136.54h42.72v42.72H2.09v-42.72Z"
             id="path17" />
          <path
             class="cls-11"
             d="M136.53,134.45h-46.9v46.91h46.9v-46.91ZM91.72,136.54h42.72v42.72h-42.72v-42.72Z"
             id="path18" />
          <path
             class="cls-11"
             d="M226.15,134.45h-46.9v46.91h46.9v-46.91ZM181.34,136.54h42.72v42.72h-42.72v-42.72Z"
             id="path19" />
          <path
             class="cls-11"
             d="M315.78,134.45h-46.9v46.91h46.9v-46.91ZM270.97,136.54h42.72v42.72h-42.72v-42.72Z"
             id="path20" />
          <path
             class="cls-11"
             d="M405.41,134.45h-46.9v46.91h46.9v-46.91ZM360.59,136.54h42.72v42.72h-42.72v-42.72Z"
             id="path21" />
          <path
             class="cls-11"
             d="M91.72,179.26h-46.9v46.91h46.9v-46.91ZM46.9,181.35h42.72v42.72h-42.72v-42.72Z"
             id="path22" />
          <path
             class="cls-11"
             d="M181.34,179.26h-46.9v46.91h46.9v-46.91ZM136.53,181.35h42.72v42.72h-42.72v-42.72Z"
             id="path23" />
          <path
             class="cls-11"
             d="M270.97,179.26h-46.9v46.91h46.9v-46.91ZM226.15,181.35h42.72v42.72h-42.72v-42.72Z"
             id="path24" />
          <path
             class="cls-11"
             d="M360.59,179.26h-46.9v46.91h46.9v-46.91ZM315.78,181.35h42.72v42.72h-42.72v-42.72Z"
             id="path25" />
          <path
             class="cls-11"
             d="M450.22,179.26h-46.9v46.91h46.9v-46.91ZM405.41,181.35h42.72v42.72h-42.72v-42.72Z"
             id="path26" />
          <path
             class="cls-11"
             d="M46.9,224.08H0v46.91h46.9v-46.91ZM2.09,226.17h42.72v42.72H2.09v-42.72Z"
             id="path27" />
          <path
             class="cls-11"
             d="M136.53,224.08h-46.9v46.91h46.9v-46.91ZM91.72,226.17h42.72v42.72h-42.72v-42.72Z"
             id="path28" />
          <path
             class="cls-11"
             d="M226.15,224.08h-46.9v46.91h46.9v-46.91ZM181.34,226.17h42.72v42.72h-42.72v-42.72Z"
             id="path29" />
          <path
             class="cls-11"
             d="M315.78,224.08h-46.9v46.91h46.9v-46.91ZM270.97,226.17h42.72v42.72h-42.72v-42.72Z"
             id="path30" />
          <path
             class="cls-11"
             d="M405.41,224.08h-46.9v46.91h46.9v-46.91ZM360.59,226.17h42.72v42.72h-42.72v-42.72Z"
             id="path31" />
          <path
             class="cls-11"
             d="M91.72,268.89h-46.9v46.91h46.9v-46.91ZM46.9,270.98h42.72v42.72h-42.72v-42.72Z"
             id="path32" />
          <path
             class="cls-11"
             d="M181.34,268.89h-46.9v46.91h46.9v-46.91ZM136.53,270.98h42.72v42.72h-42.72v-42.72Z"
             id="path33" />
          <path
             class="cls-11"
             d="M270.97,268.89h-46.9v46.91h46.9v-46.91ZM226.15,270.98h42.72v42.72h-42.72v-42.72Z"
             id="path34" />
          <path
             class="cls-11"
             d="M360.59,268.89h-46.9v46.91h46.9v-46.91ZM315.78,270.98h42.72v42.72h-42.72v-42.72Z"
             id="path35" />
          <path
             class="cls-11"
             d="M450.22,268.89h-46.9v46.91h46.9v-46.91ZM405.41,270.98h42.72v42.72h-42.72v-42.72Z"
             id="path36" />
          <path
             class="cls-11"
             d="M46.9,313.71H0v46.91h46.9v-46.91ZM2.09,315.8h42.72v42.72H2.09v-42.72Z"
             id="path37" />
          <path
             class="cls-11"
             d="M136.53,313.71h-46.9v46.91h46.9v-46.91ZM91.72,315.8h42.72v42.72h-42.72v-42.72Z"
             id="path38" />
          <path
             class="cls-11"
             d="M226.15,313.71h-46.9v46.91h46.9v-46.91ZM181.34,315.8h42.72v42.72h-42.72v-42.72Z"
             id="path39" />
          <path
             class="cls-11"
             d="M315.78,313.71h-46.9v46.91h46.9v-46.91ZM270.97,315.8h42.72v42.72h-42.72v-42.72Z"
             id="path40" />
          <path
             class="cls-11"
             d="M405.41,313.71h-46.9v46.91h46.9v-46.91ZM360.59,315.8h42.72v42.72h-42.72v-42.72Z"
             id="path41" />
          <path
             class="cls-11"
             d="M91.72,358.52h-46.9v46.91h46.9v-46.91ZM46.9,360.61h42.72v42.72h-42.72v-42.72Z"
             id="path42" />
          <path
             class="cls-11"
             d="M181.34,358.52h-46.9v46.91h46.9v-46.91ZM136.53,360.61h42.72v42.72h-42.72v-42.72Z"
             id="path43" />
          <path
             class="cls-11"
             d="M270.97,358.52h-46.9v46.91h46.9v-46.91ZM226.15,360.61h42.72v42.72h-42.72v-42.72Z"
             id="path44" />
          <path
             class="cls-11"
             d="M360.59,358.52h-46.9v46.91h46.9v-46.91ZM315.78,360.61h42.72v42.72h-42.72v-42.72Z"
             id="path45" />
          <path
             class="cls-11"
             d="M450.22,358.52h-46.9v46.91h46.9v-46.91ZM405.41,360.61h42.72v42.72h-42.72v-42.72Z"
             id="path46" />
          <path
             class="cls-11"
             d="M46.9,403.34H0v46.91h46.9v-46.91ZM2.09,405.43h42.72v42.72H2.09v-42.72Z"
             id="path47" />
          <path
             class="cls-11"
             d="M136.53,403.34h-46.9v46.91h46.9v-46.91ZM91.72,405.43h42.72v42.72h-42.72v-42.72Z"
             id="path48" />
          <path
             class="cls-11"
             d="M226.15,403.34h-46.9v46.91h46.9v-46.91ZM181.34,405.43h42.72v42.72h-42.72v-42.72Z"
             id="path49" />
          <path
             class="cls-11"
             d="M315.78,403.34h-46.9v46.91h46.9v-46.91ZM270.97,405.43h42.72v42.72h-42.72v-42.72Z"
             id="path50" />
          <path
             class="cls-11"
             d="M405.41,403.34h-46.9v46.91h46.9v-46.91ZM360.59,405.43h42.72v42.72h-42.72v-42.72Z"
             id="path51" />
          <path
             class="cls-11"
             d="M539.84,0h-46.9v46.91h46.9V0ZM495.03,2.09h42.72v42.72h-42.72V2.09Z"
             id="path52" />
          <path
             class="cls-11"
             d="M629.47,0h-46.9v46.91h46.9V0ZM584.66,2.09h42.72v42.72h-42.72V2.09Z"
             id="path53" />
          <path
             class="cls-11"
             d="M719.1,0h-46.9v46.91h46.9V0ZM674.28,2.09h42.72v42.72h-42.72V2.09Z"
             id="path54" />
          <path
             class="cls-11"
             d="M808.72,0h-46.9v46.91h46.9V0ZM763.91,2.09h42.72v42.72h-42.72V2.09Z"
             id="path55" />
          <path
             class="cls-11"
             d="M898.35,0h-46.9v46.91h46.9V0ZM853.53,2.09h42.72v42.72h-42.72V2.09Z"
             id="path56" />
          <path
             class="cls-11"
             d="M495.03,44.82h-46.9v46.91h46.9v-46.91ZM450.22,46.91h42.72v42.72h-42.72v-42.72Z"
             id="path57" />
          <path
             class="cls-11"
             d="M584.66,44.82h-46.9v46.91h46.9v-46.91ZM539.84,46.91h42.72v42.72h-42.72v-42.72Z"
             id="path58" />
          <path
             class="cls-11"
             d="M674.28,44.82h-46.9v46.91h46.9v-46.91ZM629.47,46.91h42.72v42.72h-42.72v-42.72Z"
             id="path59" />
          <path
             class="cls-11"
             d="M763.91,44.82h-46.9v46.91h46.9v-46.91ZM719.1,46.91h42.72v42.72h-42.72v-42.72Z"
             id="path60" />
          <path
             class="cls-11"
             d="M853.53,44.82h-46.9v46.91h46.9v-46.91ZM808.72,46.91h42.72v42.72h-42.72v-42.72Z"
             id="path61" />
          <path
             class="cls-11"
             d="M539.84,89.63h-46.9v46.91h46.9v-46.91ZM495.03,91.72h42.72v42.72h-42.72v-42.72Z"
             id="path62" />
          <path
             class="cls-11"
             d="M629.47,89.63h-46.9v46.91h46.9v-46.91ZM584.66,91.72h42.72v42.72h-42.72v-42.72Z"
             id="path63" />
          <path
             class="cls-11"
             d="M719.1,89.63h-46.9v46.91h46.9v-46.91ZM674.28,91.72h42.72v42.72h-42.72v-42.72Z"
             id="path64" />
          <path
             class="cls-11"
             d="M808.72,89.63h-46.9v46.91h46.9v-46.91ZM763.91,91.72h42.72v42.72h-42.72v-42.72Z"
             id="path65" />
          <path
             class="cls-11"
             d="M898.35,89.63h-46.9v46.91h46.9v-46.91ZM853.53,91.72h42.72v42.72h-42.72v-42.72Z"
             id="path66" />
          <path
             class="cls-11"
             d="M495.03,134.45h-46.9v46.91h46.9v-46.91ZM450.22,136.54h42.72v42.72h-42.72v-42.72Z"
             id="path67" />
          <path
             class="cls-11"
             d="M584.66,134.45h-46.9v46.91h46.9v-46.91ZM539.84,136.54h42.72v42.72h-42.72v-42.72Z"
             id="path68" />
          <path
             class="cls-11"
             d="M674.28,134.45h-46.9v46.91h46.9v-46.91ZM629.47,136.54h42.72v42.72h-42.72v-42.72Z"
             id="path69" />
          <path
             class="cls-11"
             d="M763.91,134.45h-46.9v46.91h46.9v-46.91ZM719.1,136.54h42.72v42.72h-42.72v-42.72Z"
             id="path70" />
          <path
             class="cls-11"
             d="M853.53,134.45h-46.9v46.91h46.9v-46.91ZM808.72,136.54h42.72v42.72h-42.72v-42.72Z"
             id="path71" />
          <path
             class="cls-11"
             d="M539.84,179.26h-46.9v46.91h46.9v-46.91ZM495.03,181.35h42.72v42.72h-42.72v-42.72Z"
             id="path72" />
          <path
             class="cls-11"
             d="M629.47,179.26h-46.9v46.91h46.9v-46.91ZM584.66,181.35h42.72v42.72h-42.72v-42.72Z"
             id="path73" />
          <path
             class="cls-11"
             d="M719.1,179.26h-46.9v46.91h46.9v-46.91ZM674.28,181.35h42.72v42.72h-42.72v-42.72Z"
             id="path74" />
          <path
             class="cls-11"
             d="M808.72,179.26h-46.9v46.91h46.9v-46.91ZM763.91,181.35h42.72v42.72h-42.72v-42.72Z"
             id="path75" />
          <path
             class="cls-11"
             d="M898.35,179.26h-46.9v46.91h46.9v-46.91ZM853.53,181.35h42.72v42.72h-42.72v-42.72Z"
             id="path76" />
          <path
             class="cls-11"
             d="M495.03,224.08h-46.9v46.91h46.9v-46.91ZM450.22,226.17h42.72v42.72h-42.72v-42.72Z"
             id="path77" />
          <path
             class="cls-11"
             d="M584.66,224.08h-46.9v46.91h46.9v-46.91ZM539.84,226.17h42.72v42.72h-42.72v-42.72Z"
             id="path78" />
          <path
             class="cls-11"
             d="M674.28,224.08h-46.9v46.91h46.9v-46.91ZM629.47,226.17h42.72v42.72h-42.72v-42.72Z"
             id="path79" />
          <path
             class="cls-11"
             d="M763.91,224.08h-46.9v46.91h46.9v-46.91ZM719.1,226.17h42.72v42.72h-42.72v-42.72Z"
             id="path80" />
          <path
             class="cls-11"
             d="M853.53,224.08h-46.9v46.91h46.9v-46.91ZM808.72,226.17h42.72v42.72h-42.72v-42.72Z"
             id="path81" />
          <path
             class="cls-11"
             d="M539.84,268.89h-46.9v46.91h46.9v-46.91ZM495.03,270.98h42.72v42.72h-42.72v-42.72Z"
             id="path82" />
          <path
             class="cls-11"
             d="M629.47,268.89h-46.9v46.91h46.9v-46.91ZM584.66,270.98h42.72v42.72h-42.72v-42.72Z"
             id="path83" />
          <path
             class="cls-11"
             d="M719.1,268.89h-46.9v46.91h46.9v-46.91ZM674.28,270.98h42.72v42.72h-42.72v-42.72Z"
             id="path84" />
          <path
             class="cls-11"
             d="M808.72,268.89h-46.9v46.91h46.9v-46.91ZM763.91,270.98h42.72v42.72h-42.72v-42.72Z"
             id="path85" />
          <path
             class="cls-11"
             d="M898.35,268.89h-46.9v46.91h46.9v-46.91ZM853.53,270.98h42.72v42.72h-42.72v-42.72Z"
             id="path86" />
          <path
             class="cls-11"
             d="M495.03,313.71h-46.9v46.91h46.9v-46.91ZM450.22,315.8h42.72v42.72h-42.72v-42.72Z"
             id="path87" />
          <path
             class="cls-11"
             d="M584.66,313.71h-46.9v46.91h46.9v-46.91ZM539.84,315.8h42.72v42.72h-42.72v-42.72Z"
             id="path88" />
          <path
             class="cls-11"
             d="M674.28,313.71h-46.9v46.91h46.9v-46.91ZM629.47,315.8h42.72v42.72h-42.72v-42.72Z"
             id="path89" />
          <path
             class="cls-11"
             d="M763.91,313.71h-46.9v46.91h46.9v-46.91ZM719.1,315.8h42.72v42.72h-42.72v-42.72Z"
             id="path90" />
          <path
             class="cls-11"
             d="M853.53,313.71h-46.9v46.91h46.9v-46.91ZM808.72,315.8h42.72v42.72h-42.72v-42.72Z"
             id="path91" />
          <path
             class="cls-11"
             d="M539.84,358.52h-46.9v46.91h46.9v-46.91ZM495.03,360.61h42.72v42.72h-42.72v-42.72Z"
             id="path92" />
          <path
             class="cls-11"
             d="M629.47,358.52h-46.9v46.91h46.9v-46.91ZM584.66,360.61h42.72v42.72h-42.72v-42.72Z"
             id="path93" />
          <path
             class="cls-11"
             d="M719.1,358.52h-46.9v46.91h46.9v-46.91ZM674.28,360.61h42.72v42.72h-42.72v-42.72Z"
             id="path94" />
          <path
             class="cls-11"
             d="M808.72,358.52h-46.9v46.91h46.9v-46.91ZM763.91,360.61h42.72v42.72h-42.72v-42.72Z"
             id="path95" />
          <path
             class="cls-11"
             d="M898.35,358.52h-46.9v46.91h46.9v-46.91ZM853.53,360.61h42.72v42.72h-42.72v-42.72Z"
             id="path96" />
          <path
             class="cls-11"
             d="M495.03,403.34h-46.9v46.91h46.9v-46.91ZM450.22,405.43h42.72v42.72h-42.72v-42.72Z"
             id="path97" />
          <path
             class="cls-11"
             d="M584.66,403.34h-46.9v46.91h46.9v-46.91ZM539.84,405.43h42.72v42.72h-42.72v-42.72Z"
             id="path98" />
          <path
             class="cls-11"
             d="M674.28,403.34h-46.9v46.91h46.9v-46.91ZM629.47,405.43h42.72v42.72h-42.72v-42.72Z"
             id="path99" />
          <path
             class="cls-11"
             d="M763.91,403.34h-46.9v46.91h46.9v-46.91ZM719.1,405.43h42.72v42.72h-42.72v-42.72Z"
             id="path100" />
          <path
             class="cls-11"
             d="M853.53,403.34h-46.9v46.91h46.9v-46.91ZM808.72,405.43h42.72v42.72h-42.72v-42.72Z"
             id="path101" />
          <path
             class="cls-11"
             d="M91.72,448.1h-46.9v46.91h46.9v-46.91ZM46.9,450.19h42.72v42.72h-42.72v-42.72Z"
             id="path102" />
          <path
             class="cls-11"
             d="M181.34,448.1h-46.9v46.91h46.9v-46.91ZM136.53,450.19h42.72v42.72h-42.72v-42.72Z"
             id="path103" />
          <path
             class="cls-11"
             d="M270.97,448.1h-46.9v46.91h46.9v-46.91ZM226.15,450.19h42.72v42.72h-42.72v-42.72Z"
             id="path104" />
          <path
             class="cls-11"
             d="M360.59,448.1h-46.9v46.91h46.9v-46.91ZM315.78,450.19h42.72v42.72h-42.72v-42.72Z"
             id="path105" />
          <path
             class="cls-11"
             d="M450.22,448.1h-46.9v46.91h46.9v-46.91ZM405.41,450.19h42.72v42.72h-42.72v-42.72Z"
             id="path106" />
          <path
             class="cls-11"
             d="M46.9,492.92H0v46.91h46.9v-46.91ZM2.09,495.01h42.72v42.72H2.09v-42.72Z"
             id="path107" />
          <path
             class="cls-11"
             d="M136.53,492.92h-46.9v46.91h46.9v-46.91ZM91.72,495.01h42.72v42.72h-42.72v-42.72Z"
             id="path108" />
          <path
             class="cls-11"
             d="M226.15,492.92h-46.9v46.91h46.9v-46.91ZM181.34,495.01h42.72v42.72h-42.72v-42.72Z"
             id="path109" />
          <path
             class="cls-11"
             d="M315.78,492.92h-46.9v46.91h46.9v-46.91ZM270.97,495.01h42.72v42.72h-42.72v-42.72Z"
             id="path110" />
          <path
             class="cls-11"
             d="M405.41,492.92h-46.9v46.91h46.9v-46.91ZM360.59,495.01h42.72v42.72h-42.72v-42.72Z"
             id="path111" />
          <path
             class="cls-11"
             d="M91.72,537.73h-46.9v46.91h46.9v-46.91ZM46.9,539.82h42.72v42.72h-42.72v-42.72Z"
             id="path112" />
          <path
             class="cls-11"
             d="M181.34,537.73h-46.9v46.91h46.9v-46.91ZM136.53,539.82h42.72v42.72h-42.72v-42.72Z"
             id="path113" />
          <path
             class="cls-11"
             d="M270.97,537.73h-46.9v46.91h46.9v-46.91ZM226.15,539.82h42.72v42.72h-42.72v-42.72Z"
             id="path114" />
          <path
             class="cls-11"
             d="M360.59,537.73h-46.9v46.91h46.9v-46.91ZM315.78,539.82h42.72v42.72h-42.72v-42.72Z"
             id="path115" />
          <path
             class="cls-11"
             d="M450.22,537.73h-46.9v46.91h46.9v-46.91ZM405.41,539.82h42.72v42.72h-42.72v-42.72Z"
             id="path116" />
          <path
             class="cls-11"
             d="M46.9,582.55H0v46.91h46.9v-46.91ZM2.09,584.64h42.72v42.72H2.09v-42.72Z"
             id="path117" />
          <path
             class="cls-11"
             d="M136.53,582.55h-46.9v46.91h46.9v-46.91ZM91.72,584.64h42.72v42.72h-42.72v-42.72Z"
             id="path118" />
          <path
             class="cls-11"
             d="M226.15,582.55h-46.9v46.91h46.9v-46.91ZM181.34,584.64h42.72v42.72h-42.72v-42.72Z"
             id="path119" />
          <path
             class="cls-11"
             d="M315.78,582.55h-46.9v46.91h46.9v-46.91ZM270.97,584.64h42.72v42.72h-42.72v-42.72Z"
             id="path120" />
          <path
             class="cls-11"
             d="M405.41,582.55h-46.9v46.91h46.9v-46.91ZM360.59,584.64h42.72v42.72h-42.72v-42.72Z"
             id="path121" />
          <path
             class="cls-11"
             d="M91.72,627.36h-46.9v46.91h46.9v-46.91ZM46.9,629.45h42.72v42.72h-42.72v-42.72Z"
             id="path122" />
          <path
             class="cls-11"
             d="M181.34,627.36h-46.9v46.91h46.9v-46.91ZM136.53,629.45h42.72v42.72h-42.72v-42.72Z"
             id="path123" />
          <path
             class="cls-11"
             d="M270.97,627.36h-46.9v46.91h46.9v-46.91ZM226.15,629.45h42.72v42.72h-42.72v-42.72Z"
             id="path124" />
          <path
             class="cls-11"
             d="M360.59,627.36h-46.9v46.91h46.9v-46.91ZM315.78,629.45h42.72v42.72h-42.72v-42.72Z"
             id="path125" />
          <path
             class="cls-11"
             d="M450.22,627.36h-46.9v46.91h46.9v-46.91ZM405.41,629.45h42.72v42.72h-42.72v-42.72Z"
             id="path126" />
          <path
             class="cls-11"
             d="M46.9,672.18H0v46.91h46.9v-46.91ZM2.09,674.27h42.72v42.72H2.09v-42.72Z"
             id="path127" />
          <path
             class="cls-11"
             d="M136.53,672.18h-46.9v46.91h46.9v-46.91ZM91.72,674.27h42.72v42.72h-42.72v-42.72Z"
             id="path128" />
          <path
             class="cls-11"
             d="M226.15,672.18h-46.9v46.91h46.9v-46.91ZM181.34,674.27h42.72v42.72h-42.72v-42.72Z"
             id="path129" />
          <path
             class="cls-11"
             d="M315.78,672.18h-46.9v46.91h46.9v-46.91ZM270.97,674.27h42.72v42.72h-42.72v-42.72Z"
             id="path130" />
          <path
             class="cls-11"
             d="M405.41,672.18h-46.9v46.91h46.9v-46.91ZM360.59,674.27h42.72v42.72h-42.72v-42.72Z"
             id="path131" />
          <path
             class="cls-11"
             d="M91.72,716.99h-46.9v46.91h46.9v-46.91ZM46.9,719.09h42.72v42.72h-42.72v-42.72Z"
             id="path132" />
          <path
             class="cls-11"
             d="M181.34,716.99h-46.9v46.91h46.9v-46.91ZM136.53,719.09h42.72v42.72h-42.72v-42.72Z"
             id="path133" />
          <path
             class="cls-11"
             d="M270.97,716.99h-46.9v46.91h46.9v-46.91ZM226.15,719.09h42.72v42.72h-42.72v-42.72Z"
             id="path134" />
          <path
             class="cls-11"
             d="M360.59,716.99h-46.9v46.91h46.9v-46.91ZM315.78,719.09h42.72v42.72h-42.72v-42.72Z"
             id="path135" />
          <path
             class="cls-11"
             d="M450.22,716.99h-46.9v46.91h46.9v-46.91ZM405.41,719.09h42.72v42.72h-42.72v-42.72Z"
             id="path136" />
          <path
             class="cls-11"
             d="M46.9,761.81H0v46.91h46.9v-46.91ZM2.09,763.9h42.72v42.72H2.09v-42.72Z"
             id="path137" />
          <path
             class="cls-11"
             d="M136.53,761.81h-46.9v46.91h46.9v-46.91ZM91.72,763.9h42.72v42.72h-42.72v-42.72Z"
             id="path138" />
          <path
             class="cls-11"
             d="M226.15,761.81h-46.9v46.91h46.9v-46.91ZM181.34,763.9h42.72v42.72h-42.72v-42.72Z"
             id="path139" />
          <path
             class="cls-11"
             d="M315.78,761.81h-46.9v46.91h46.9v-46.91ZM270.97,763.9h42.72v42.72h-42.72v-42.72Z"
             id="path140" />
          <path
             class="cls-11"
             d="M405.41,761.81h-46.9v46.91h46.9v-46.91ZM360.59,763.9h42.72v42.72h-42.72v-42.72Z"
             id="path141" />
          <path
             class="cls-11"
             d="M91.72,806.63h-46.9v46.91h46.9v-46.91ZM46.9,808.72h42.72v42.72h-42.72v-42.72Z"
             id="path142" />
          <path
             class="cls-11"
             d="M181.34,806.63h-46.9v46.91h46.9v-46.91ZM136.53,808.72h42.72v42.72h-42.72v-42.72Z"
             id="path143" />
          <path
             class="cls-11"
             d="M270.97,806.63h-46.9v46.91h46.9v-46.91ZM226.15,808.72h42.72v42.72h-42.72v-42.72Z"
             id="path144" />
          <path
             class="cls-11"
             d="M360.59,806.63h-46.9v46.91h46.9v-46.91ZM315.78,808.72h42.72v42.72h-42.72v-42.72Z"
             id="path145" />
          <path
             class="cls-11"
             d="M450.22,806.63h-46.9v46.91h46.9v-46.91ZM405.41,808.72h42.72v42.72h-42.72v-42.72Z"
             id="path146" />
          <path
             class="cls-11"
             d="M46.9,851.44H0v46.91h46.9v-46.91ZM2.09,853.53h42.72v42.72H2.09v-42.72Z"
             id="path147" />
          <path
             class="cls-11"
             d="M136.53,851.44h-46.9v46.91h46.9v-46.91ZM91.72,853.53h42.72v42.72h-42.72v-42.72Z"
             id="path148" />
          <path
             class="cls-11"
             d="M226.15,851.44h-46.9v46.91h46.9v-46.91ZM181.34,853.53h42.72v42.72h-42.72v-42.72Z"
             id="path149" />
          <path
             class="cls-11"
             d="M315.78,851.44h-46.9v46.91h46.9v-46.91ZM270.97,853.53h42.72v42.72h-42.72v-42.72Z"
             id="path150" />
          <path
             class="cls-11"
             d="M405.41,851.44h-46.9v46.91h46.9v-46.91ZM360.59,853.53h42.72v42.72h-42.72v-42.72Z"
             id="path151" />
          <path
             class="cls-11"
             d="M539.84,448.1h-46.9v46.91h46.9v-46.91ZM495.03,450.19h42.72v42.72h-42.72v-42.72Z"
             id="path152" />
          <path
             class="cls-11"
             d="M629.47,448.1h-46.9v46.91h46.9v-46.91ZM584.66,450.19h42.72v42.72h-42.72v-42.72Z"
             id="path153" />
          <path
             class="cls-11"
             d="M719.1,448.1h-46.9v46.91h46.9v-46.91ZM674.28,450.19h42.72v42.72h-42.72v-42.72Z"
             id="path154" />
          <path
             class="cls-11"
             d="M808.72,448.1h-46.9v46.91h46.9v-46.91ZM763.91,450.19h42.72v42.72h-42.72v-42.72Z"
             id="path155" />
          <path
             class="cls-11"
             d="M898.35,448.1h-46.9v46.91h46.9v-46.91ZM853.53,450.19h42.72v42.72h-42.72v-42.72Z"
             id="path156" />
          <path
             class="cls-11"
             d="M495.03,492.92h-46.9v46.91h46.9v-46.91ZM450.22,495.01h42.72v42.72h-42.72v-42.72Z"
             id="path157" />
          <path
             class="cls-11"
             d="M584.66,492.92h-46.9v46.91h46.9v-46.91ZM539.84,495.01h42.72v42.72h-42.72v-42.72Z"
             id="path158" />
          <path
             class="cls-11"
             d="M674.28,492.92h-46.9v46.91h46.9v-46.91ZM629.47,495.01h42.72v42.72h-42.72v-42.72Z"
             id="path159" />
          <path
             class="cls-11"
             d="M763.91,492.92h-46.9v46.91h46.9v-46.91ZM719.1,495.01h42.72v42.72h-42.72v-42.72Z"
             id="path160" />
          <path
             class="cls-11"
             d="M853.53,492.92h-46.9v46.91h46.9v-46.91ZM808.72,495.01h42.72v42.72h-42.72v-42.72Z"
             id="path161" />
          <path
             class="cls-11"
             d="M539.84,537.73h-46.9v46.91h46.9v-46.91ZM495.03,539.82h42.72v42.72h-42.72v-42.72Z"
             id="path162" />
          <path
             class="cls-11"
             d="M629.47,537.73h-46.9v46.91h46.9v-46.91ZM584.66,539.82h42.72v42.72h-42.72v-42.72Z"
             id="path163" />
          <path
             class="cls-11"
             d="M719.1,537.73h-46.9v46.91h46.9v-46.91ZM674.28,539.82h42.72v42.72h-42.72v-42.72Z"
             id="path164" />
          <path
             class="cls-11"
             d="M808.72,537.73h-46.9v46.91h46.9v-46.91ZM763.91,539.82h42.72v42.72h-42.72v-42.72Z"
             id="path165" />
          <path
             class="cls-11"
             d="M898.35,537.73h-46.9v46.91h46.9v-46.91ZM853.53,539.82h42.72v42.72h-42.72v-42.72Z"
             id="path166" />
          <path
             class="cls-11"
             d="M495.03,582.55h-46.9v46.91h46.9v-46.91ZM450.22,584.64h42.72v42.72h-42.72v-42.72Z"
             id="path167" />
          <path
             class="cls-11"
             d="M584.66,582.55h-46.9v46.91h46.9v-46.91ZM539.84,584.64h42.72v42.72h-42.72v-42.72Z"
             id="path168" />
          <path
             class="cls-11"
             d="M674.28,582.55h-46.9v46.91h46.9v-46.91ZM629.47,584.64h42.72v42.72h-42.72v-42.72Z"
             id="path169" />
          <path
             class="cls-11"
             d="M763.91,582.55h-46.9v46.91h46.9v-46.91ZM719.1,584.64h42.72v42.72h-42.72v-42.72Z"
             id="path170" />
          <path
             class="cls-11"
             d="M853.53,582.55h-46.9v46.91h46.9v-46.91ZM808.72,584.64h42.72v42.72h-42.72v-42.72Z"
             id="path171" />
          <path
             class="cls-11"
             d="M539.84,627.36h-46.9v46.91h46.9v-46.91ZM495.03,629.45h42.72v42.72h-42.72v-42.72Z"
             id="path172" />
          <path
             class="cls-11"
             d="M629.47,627.36h-46.9v46.91h46.9v-46.91ZM584.66,629.45h42.72v42.72h-42.72v-42.72Z"
             id="path173" />
          <path
             class="cls-11"
             d="M719.1,627.36h-46.9v46.91h46.9v-46.91ZM674.28,629.45h42.72v42.72h-42.72v-42.72Z"
             id="path174" />
          <path
             class="cls-11"
             d="M808.72,627.36h-46.9v46.91h46.9v-46.91ZM763.91,629.45h42.72v42.72h-42.72v-42.72Z"
             id="path175" />
          <path
             class="cls-11"
             d="M898.35,627.36h-46.9v46.91h46.9v-46.91ZM853.53,629.45h42.72v42.72h-42.72v-42.72Z"
             id="path176" />
          <path
             class="cls-11"
             d="M495.03,672.18h-46.9v46.91h46.9v-46.91ZM450.22,674.27h42.72v42.72h-42.72v-42.72Z"
             id="path177" />
          <path
             class="cls-11"
             d="M584.66,672.18h-46.9v46.91h46.9v-46.91ZM539.84,674.27h42.72v42.72h-42.72v-42.72Z"
             id="path178" />
          <path
             class="cls-11"
             d="M674.28,672.18h-46.9v46.91h46.9v-46.91ZM629.47,674.27h42.72v42.72h-42.72v-42.72Z"
             id="path179" />
          <path
             class="cls-11"
             d="M763.91,672.18h-46.9v46.91h46.9v-46.91ZM719.1,674.27h42.72v42.72h-42.72v-42.72Z"
             id="path180" />
          <path
             class="cls-11"
             d="M853.53,672.18h-46.9v46.91h46.9v-46.91ZM808.72,674.27h42.72v42.72h-42.72v-42.72Z"
             id="path181" />
          <path
             class="cls-11"
             d="M539.84,716.99h-46.9v46.91h46.9v-46.91ZM495.03,719.09h42.72v42.72h-42.72v-42.72Z"
             id="path182" />
          <path
             class="cls-11"
             d="M629.47,716.99h-46.9v46.91h46.9v-46.91ZM584.66,719.09h42.72v42.72h-42.72v-42.72Z"
             id="path183" />
          <path
             class="cls-11"
             d="M719.1,716.99h-46.9v46.91h46.9v-46.91ZM674.28,719.09h42.72v42.72h-42.72v-42.72Z"
             id="path184" />
          <path
             class="cls-11"
             d="M808.72,716.99h-46.9v46.91h46.9v-46.91ZM763.91,719.09h42.72v42.72h-42.72v-42.72Z"
             id="path185" />
          <path
             class="cls-11"
             d="M898.35,716.99h-46.9v46.91h46.9v-46.91ZM853.53,719.09h42.72v42.72h-42.72v-42.72Z"
             id="path186" />
          <path
             class="cls-11"
             d="M495.03,761.81h-46.9v46.91h46.9v-46.91ZM450.22,763.9h42.72v42.72h-42.72v-42.72Z"
             id="path187" />
          <path
             class="cls-11"
             d="M584.66,761.81h-46.9v46.91h46.9v-46.91ZM539.84,763.9h42.72v42.72h-42.72v-42.72Z"
             id="path188" />
          <path
             class="cls-11"
             d="M674.28,761.81h-46.9v46.91h46.9v-46.91ZM629.47,763.9h42.72v42.72h-42.72v-42.72Z"
             id="path189" />
          <path
             class="cls-11"
             d="M763.91,761.81h-46.9v46.91h46.9v-46.91ZM719.1,763.9h42.72v42.72h-42.72v-42.72Z"
             id="path190" />
          <path
             class="cls-11"
             d="M853.53,761.81h-46.9v46.91h46.9v-46.91ZM808.72,763.9h42.72v42.72h-42.72v-42.72Z"
             id="path191" />
          <path
             class="cls-11"
             d="M539.84,806.63h-46.9v46.91h46.9v-46.91ZM495.03,808.72h42.72v42.72h-42.72v-42.72Z"
             id="path192" />
          <path
             class="cls-11"
             d="M629.47,806.63h-46.9v46.91h46.9v-46.91ZM584.66,808.72h42.72v42.72h-42.72v-42.72Z"
             id="path193" />
          <path
             class="cls-11"
             d="M719.1,806.63h-46.9v46.91h46.9v-46.91ZM674.28,808.72h42.72v42.72h-42.72v-42.72Z"
             id="path194" />
          <path
             class="cls-11"
             d="M808.72,806.63h-46.9v46.91h46.9v-46.91ZM763.91,808.72h42.72v42.72h-42.72v-42.72Z"
             id="path195" />
          <path
             class="cls-11"
             d="M898.35,806.63h-46.9v46.91h46.9v-46.91ZM853.53,808.72h42.72v42.72h-42.72v-42.72Z"
             id="path196" />
          <path
             class="cls-11"
             d="M495.03,851.44h-46.9v46.91h46.9v-46.91ZM450.22,853.53h42.72v42.72h-42.72v-42.72Z"
             id="path197" />
          <path
             class="cls-11"
             d="M584.66,851.44h-46.9v46.91h46.9v-46.91ZM539.84,853.53h42.72v42.72h-42.72v-42.72Z"
             id="path198" />
          <path
             class="cls-11"
             d="M674.28,851.44h-46.9v46.91h46.9v-46.91ZM629.47,853.53h42.72v42.72h-42.72v-42.72Z"
             id="path199" />
          <path
             class="cls-11"
             d="M763.91,851.44h-46.9v46.91h46.9v-46.91ZM719.1,853.53h42.72v42.72h-42.72v-42.72Z"
             id="path200" />
          <path
             class="cls-11"
             d="M853.53,851.44h-46.9v46.91h46.9v-46.91ZM808.72,853.53h42.72v42.72h-42.72v-42.72Z"
             id="path201" />
          <path
             class="cls-11"
             d="M46.9,0H0v46.91h46.9V0ZM2.09,2.09h42.72v42.72H2.09V2.09Z"
             id="path202" />
          <path
             class="cls-11"
             d="M136.53,0h-46.9v46.91h46.9V0ZM91.72,2.09h42.72v42.72h-42.72V2.09Z"
             id="path203" />
          <path
             class="cls-11"
             d="M226.15,0h-46.9v46.91h46.9V0ZM181.34,2.09h42.72v42.72h-42.72V2.09Z"
             id="path204" />
          <path
             class="cls-11"
             d="M315.78,0h-46.9v46.91h46.9V0ZM270.97,2.09h42.72v42.72h-42.72V2.09Z"
             id="path205" />
          <path
             class="cls-11"
             d="M405.41,0h-46.9v46.91h46.9V0ZM360.59,2.09h42.72v42.72h-42.72V2.09Z"
             id="path206" />
          <path
             class="cls-11"
             d="M91.72,44.82h-46.9v46.91h46.9v-46.91ZM46.9,46.91h42.72v42.72h-42.72v-42.72Z"
             id="path207" />
          <path
             class="cls-11"
             d="M181.34,44.82h-46.9v46.91h46.9v-46.91ZM136.53,46.91h42.72v42.72h-42.72v-42.72Z"
             id="path208" />
          <path
             class="cls-11"
             d="M270.97,44.82h-46.9v46.91h46.9v-46.91ZM226.15,46.91h42.72v42.72h-42.72v-42.72Z"
             id="path209" />
          <path
             class="cls-11"
             d="M360.59,44.82h-46.9v46.91h46.9v-46.91ZM315.78,46.91h42.72v42.72h-42.72v-42.72Z"
             id="path210" />
          <path
             class="cls-11"
             d="M450.22,44.82h-46.9v46.91h46.9v-46.91ZM405.41,46.91h42.72v42.72h-42.72v-42.72Z"
             id="path211" />
          <path
             class="cls-11"
             d="M46.9,89.63H0v46.91h46.9v-46.91ZM2.09,91.72h42.72v42.72H2.09v-42.72Z"
             id="path212" />
          <path
             class="cls-11"
             d="M136.53,89.63h-46.9v46.91h46.9v-46.91ZM91.72,91.72h42.72v42.72h-42.72v-42.72Z"
             id="path213" />
          <path
             class="cls-11"
             d="M226.15,89.63h-46.9v46.91h46.9v-46.91ZM181.34,91.72h42.72v42.72h-42.72v-42.72Z"
             id="path214" />
          <path
             class="cls-11"
             d="M315.78,89.63h-46.9v46.91h46.9v-46.91ZM270.97,91.72h42.72v42.72h-42.72v-42.72Z"
             id="path215" />
          <path
             class="cls-11"
             d="M405.41,89.63h-46.9v46.91h46.9v-46.91ZM360.59,91.72h42.72v42.72h-42.72v-42.72Z"
             id="path216" />
          <path
             class="cls-11"
             d="M91.72,134.45h-46.9v46.91h46.9v-46.91ZM46.9,136.54h42.72v42.72h-42.72v-42.72Z"
             id="path217" />
          <path
             class="cls-11"
             d="M181.34,134.45h-46.9v46.91h46.9v-46.91ZM136.53,136.54h42.72v42.72h-42.72v-42.72Z"
             id="path218" />
          <path
             class="cls-11"
             d="M270.97,134.45h-46.9v46.91h46.9v-46.91ZM226.15,136.54h42.72v42.72h-42.72v-42.72Z"
             id="path219" />
          <path
             class="cls-11"
             d="M360.59,134.45h-46.9v46.91h46.9v-46.91ZM315.78,136.54h42.72v42.72h-42.72v-42.72Z"
             id="path220" />
          <path
             class="cls-11"
             d="M450.22,134.45h-46.9v46.91h46.9v-46.91ZM405.41,136.54h42.72v42.72h-42.72v-42.72Z"
             id="path221" />
          <path
             class="cls-11"
             d="M46.9,179.26H0v46.91h46.9v-46.91ZM2.09,181.35h42.72v42.72H2.09v-42.72Z"
             id="path222" />
          <path
             class="cls-11"
             d="M136.53,179.26h-46.9v46.91h46.9v-46.91ZM91.72,181.35h42.72v42.72h-42.72v-42.72Z"
             id="path223" />
          <path
             class="cls-11"
             d="M226.15,179.26h-46.9v46.91h46.9v-46.91ZM181.34,181.35h42.72v42.72h-42.72v-42.72Z"
             id="path224" />
          <path
             class="cls-11"
             d="M315.78,179.26h-46.9v46.91h46.9v-46.91ZM270.97,181.35h42.72v42.72h-42.72v-42.72Z"
             id="path225" />
          <path
             class="cls-11"
             d="M405.41,179.26h-46.9v46.91h46.9v-46.91ZM360.59,181.35h42.72v42.72h-42.72v-42.72Z"
             id="path226" />
          <path
             class="cls-11"
             d="M91.72,224.08h-46.9v46.91h46.9v-46.91ZM46.9,226.17h42.72v42.72h-42.72v-42.72Z"
             id="path227" />
          <path
             class="cls-11"
             d="M181.34,224.08h-46.9v46.91h46.9v-46.91ZM136.53,226.17h42.72v42.72h-42.72v-42.72Z"
             id="path228" />
          <path
             class="cls-11"
             d="M270.97,224.08h-46.9v46.91h46.9v-46.91ZM226.15,226.17h42.72v42.72h-42.72v-42.72Z"
             id="path229" />
          <path
             class="cls-11"
             d="M360.59,224.08h-46.9v46.91h46.9v-46.91ZM315.78,226.17h42.72v42.72h-42.72v-42.72Z"
             id="path230" />
          <path
             class="cls-11"
             d="M450.22,224.08h-46.9v46.91h46.9v-46.91ZM405.41,226.17h42.72v42.72h-42.72v-42.72Z"
             id="path231" />
          <path
             class="cls-11"
             d="M46.9,268.89H0v46.91h46.9v-46.91ZM2.09,270.98h42.72v42.72H2.09v-42.72Z"
             id="path232" />
          <path
             class="cls-11"
             d="M136.53,268.89h-46.9v46.91h46.9v-46.91ZM91.72,270.98h42.72v42.72h-42.72v-42.72Z"
             id="path233" />
          <path
             class="cls-11"
             d="M226.15,268.89h-46.9v46.91h46.9v-46.91ZM181.34,270.98h42.72v42.72h-42.72v-42.72Z"
             id="path234" />
          <path
             class="cls-11"
             d="M315.78,268.89h-46.9v46.91h46.9v-46.91ZM270.97,270.98h42.72v42.72h-42.72v-42.72Z"
             id="path235" />
          <path
             class="cls-11"
             d="M405.41,268.89h-46.9v46.91h46.9v-46.91ZM360.59,270.98h42.72v42.72h-42.72v-42.72Z"
             id="path236" />
          <path
             class="cls-11"
             d="M91.72,313.71h-46.9v46.91h46.9v-46.91ZM46.9,315.8h42.72v42.72h-42.72v-42.72Z"
             id="path237" />
          <path
             class="cls-11"
             d="M181.34,313.71h-46.9v46.91h46.9v-46.91ZM136.53,315.8h42.72v42.72h-42.72v-42.72Z"
             id="path238" />
          <path
             class="cls-11"
             d="M270.97,313.71h-46.9v46.91h46.9v-46.91ZM226.15,315.8h42.72v42.72h-42.72v-42.72Z"
             id="path239" />
          <path
             class="cls-11"
             d="M360.59,313.71h-46.9v46.91h46.9v-46.91ZM315.78,315.8h42.72v42.72h-42.72v-42.72Z"
             id="path240" />
          <path
             class="cls-11"
             d="M450.22,313.71h-46.9v46.91h46.9v-46.91ZM405.41,315.8h42.72v42.72h-42.72v-42.72Z"
             id="path241" />
          <path
             class="cls-11"
             d="M46.9,358.52H0v46.91h46.9v-46.91ZM2.09,360.61h42.72v42.72H2.09v-42.72Z"
             id="path242" />
          <path
             class="cls-11"
             d="M136.53,358.52h-46.9v46.91h46.9v-46.91ZM91.72,360.61h42.72v42.72h-42.72v-42.72Z"
             id="path243" />
          <path
             class="cls-11"
             d="M226.15,358.52h-46.9v46.91h46.9v-46.91ZM181.34,360.61h42.72v42.72h-42.72v-42.72Z"
             id="path244" />
          <path
             class="cls-11"
             d="M315.78,358.52h-46.9v46.91h46.9v-46.91ZM270.97,360.61h42.72v42.72h-42.72v-42.72Z"
             id="path245" />
          <path
             class="cls-11"
             d="M405.41,358.52h-46.9v46.91h46.9v-46.91ZM360.59,360.61h42.72v42.72h-42.72v-42.72Z"
             id="path246" />
          <path
             class="cls-11"
             d="M91.72,403.34h-46.9v46.91h46.9v-46.91ZM46.9,405.43h42.72v42.72h-42.72v-42.72Z"
             id="path247" />
          <path
             class="cls-11"
             d="M181.34,403.34h-46.9v46.91h46.9v-46.91ZM136.53,405.43h42.72v42.72h-42.72v-42.72Z"
             id="path248" />
          <path
             class="cls-11"
             d="M270.97,403.34h-46.9v46.91h46.9v-46.91ZM226.15,405.43h42.72v42.72h-42.72v-42.72Z"
             id="path249" />
          <path
             class="cls-11"
             d="M360.59,403.34h-46.9v46.91h46.9v-46.91ZM315.78,405.43h42.72v42.72h-42.72v-42.72Z"
             id="path250" />
          <path
             class="cls-11"
             d="M450.22,403.34h-46.9v46.91h46.9v-46.91ZM405.41,405.43h42.72v42.72h-42.72v-42.72Z"
             id="path251" />
          <path
             class="cls-11"
             d="M495.03,0h-46.9v46.91h46.9V0ZM450.22,2.09h42.72v42.72h-42.72V2.09Z"
             id="path252" />
          <path
             class="cls-11"
             d="M584.66,0h-46.9v46.91h46.9V0ZM539.84,2.09h42.72v42.72h-42.72V2.09Z"
             id="path253" />
          <path
             class="cls-11"
             d="M674.28,0h-46.9v46.91h46.9V0ZM629.47,2.09h42.72v42.72h-42.72V2.09Z"
             id="path254" />
          <path
             class="cls-11"
             d="M763.91,0h-46.9v46.91h46.9V0ZM719.1,2.09h42.72v42.72h-42.72V2.09Z"
             id="path255" />
          <path
             class="cls-11"
             d="M853.53,0h-46.9v46.91h46.9V0ZM808.72,2.09h42.72v42.72h-42.72V2.09Z"
             id="path256" />
          <path
             class="cls-11"
             d="M539.84,44.82h-46.9v46.91h46.9v-46.91ZM495.03,46.91h42.72v42.72h-42.72v-42.72Z"
             id="path257" />
          <path
             class="cls-11"
             d="M629.47,44.82h-46.9v46.91h46.9v-46.91ZM584.66,46.91h42.72v42.72h-42.72v-42.72Z"
             id="path258" />
          <path
             class="cls-11"
             d="M719.1,44.82h-46.9v46.91h46.9v-46.91ZM674.28,46.91h42.72v42.72h-42.72v-42.72Z"
             id="path259" />
          <path
             class="cls-11"
             d="M808.72,44.82h-46.9v46.91h46.9v-46.91ZM763.91,46.91h42.72v42.72h-42.72v-42.72Z"
             id="path260" />
          <path
             class="cls-11"
             d="M898.35,44.82h-46.9v46.91h46.9v-46.91ZM853.53,46.91h42.72v42.72h-42.72v-42.72Z"
             id="path261" />
          <path
             class="cls-11"
             d="M495.03,89.63h-46.9v46.91h46.9v-46.91ZM450.22,91.72h42.72v42.72h-42.72v-42.72Z"
             id="path262" />
          <path
             class="cls-11"
             d="M584.66,89.63h-46.9v46.91h46.9v-46.91ZM539.84,91.72h42.72v42.72h-42.72v-42.72Z"
             id="path263" />
          <path
             class="cls-11"
             d="M674.28,89.63h-46.9v46.91h46.9v-46.91ZM629.47,91.72h42.72v42.72h-42.72v-42.72Z"
             id="path264" />
          <path
             class="cls-11"
             d="M763.91,89.63h-46.9v46.91h46.9v-46.91ZM719.1,91.72h42.72v42.72h-42.72v-42.72Z"
             id="path265" />
          <path
             class="cls-11"
             d="M853.53,89.63h-46.9v46.91h46.9v-46.91ZM808.72,91.72h42.72v42.72h-42.72v-42.72Z"
             id="path266" />
          <path
             class="cls-11"
             d="M539.84,134.45h-46.9v46.91h46.9v-46.91ZM495.03,136.54h42.72v42.72h-42.72v-42.72Z"
             id="path267" />
          <path
             class="cls-11"
             d="M629.47,134.45h-46.9v46.91h46.9v-46.91ZM584.66,136.54h42.72v42.72h-42.72v-42.72Z"
             id="path268" />
          <path
             class="cls-11"
             d="M719.1,134.45h-46.9v46.91h46.9v-46.91ZM674.28,136.54h42.72v42.72h-42.72v-42.72Z"
             id="path269" />
          <path
             class="cls-11"
             d="M808.72,134.45h-46.9v46.91h46.9v-46.91ZM763.91,136.54h42.72v42.72h-42.72v-42.72Z"
             id="path270" />
          <path
             class="cls-11"
             d="M898.35,134.45h-46.9v46.91h46.9v-46.91ZM853.53,136.54h42.72v42.72h-42.72v-42.72Z"
             id="path271" />
          <path
             class="cls-11"
             d="M495.03,179.26h-46.9v46.91h46.9v-46.91ZM450.22,181.35h42.72v42.72h-42.72v-42.72Z"
             id="path272" />
          <path
             class="cls-11"
             d="M584.66,179.26h-46.9v46.91h46.9v-46.91ZM539.84,181.35h42.72v42.72h-42.72v-42.72Z"
             id="path273" />
          <path
             class="cls-11"
             d="M674.28,179.26h-46.9v46.91h46.9v-46.91ZM629.47,181.35h42.72v42.72h-42.72v-42.72Z"
             id="path274" />
          <path
             class="cls-11"
             d="M763.91,179.26h-46.9v46.91h46.9v-46.91ZM719.1,181.35h42.72v42.72h-42.72v-42.72Z"
             id="path275" />
          <path
             class="cls-11"
             d="M853.53,179.26h-46.9v46.91h46.9v-46.91ZM808.72,181.35h42.72v42.72h-42.72v-42.72Z"
             id="path276" />
          <path
             class="cls-11"
             d="M539.84,224.08h-46.9v46.91h46.9v-46.91ZM495.03,226.17h42.72v42.72h-42.72v-42.72Z"
             id="path277" />
          <path
             class="cls-11"
             d="M629.47,224.08h-46.9v46.91h46.9v-46.91ZM584.66,226.17h42.72v42.72h-42.72v-42.72Z"
             id="path278" />
          <path
             class="cls-11"
             d="M719.1,224.08h-46.9v46.91h46.9v-46.91ZM674.28,226.17h42.72v42.72h-42.72v-42.72Z"
             id="path279" />
          <path
             class="cls-11"
             d="M808.72,224.08h-46.9v46.91h46.9v-46.91ZM763.91,226.17h42.72v42.72h-42.72v-42.72Z"
             id="path280" />
          <path
             class="cls-11"
             d="M898.35,224.08h-46.9v46.91h46.9v-46.91ZM853.53,226.17h42.72v42.72h-42.72v-42.72Z"
             id="path281" />
          <path
             class="cls-11"
             d="M495.03,268.89h-46.9v46.91h46.9v-46.91ZM450.22,270.98h42.72v42.72h-42.72v-42.72Z"
             id="path282" />
          <path
             class="cls-11"
             d="M584.66,268.89h-46.9v46.91h46.9v-46.91ZM539.84,270.98h42.72v42.72h-42.72v-42.72Z"
             id="path283" />
          <path
             class="cls-11"
             d="M674.28,268.89h-46.9v46.91h46.9v-46.91ZM629.47,270.98h42.72v42.72h-42.72v-42.72Z"
             id="path284" />
          <path
             class="cls-11"
             d="M763.91,268.89h-46.9v46.91h46.9v-46.91ZM719.1,270.98h42.72v42.72h-42.72v-42.72Z"
             id="path285" />
          <path
             class="cls-11"
             d="M853.53,268.89h-46.9v46.91h46.9v-46.91ZM808.72,270.98h42.72v42.72h-42.72v-42.72Z"
             id="path286" />
          <path
             class="cls-11"
             d="M539.84,313.71h-46.9v46.91h46.9v-46.91ZM495.03,315.8h42.72v42.72h-42.72v-42.72Z"
             id="path287" />
          <path
             class="cls-11"
             d="M629.47,313.71h-46.9v46.91h46.9v-46.91ZM584.66,315.8h42.72v42.72h-42.72v-42.72Z"
             id="path288" />
          <path
             class="cls-11"
             d="M719.1,313.71h-46.9v46.91h46.9v-46.91ZM674.28,315.8h42.72v42.72h-42.72v-42.72Z"
             id="path289" />
          <path
             class="cls-11"
             d="M808.72,313.71h-46.9v46.91h46.9v-46.91ZM763.91,315.8h42.72v42.72h-42.72v-42.72Z"
             id="path290" />
          <path
             class="cls-11"
             d="M898.35,313.71h-46.9v46.91h46.9v-46.91ZM853.53,315.8h42.72v42.72h-42.72v-42.72Z"
             id="path291" />
          <path
             class="cls-11"
             d="M495.03,358.52h-46.9v46.91h46.9v-46.91ZM450.22,360.61h42.72v42.72h-42.72v-42.72Z"
             id="path292" />
          <path
             class="cls-11"
             d="M584.66,358.52h-46.9v46.91h46.9v-46.91ZM539.84,360.61h42.72v42.72h-42.72v-42.72Z"
             id="path293" />
          <path
             class="cls-11"
             d="M674.28,358.52h-46.9v46.91h46.9v-46.91ZM629.47,360.61h42.72v42.72h-42.72v-42.72Z"
             id="path294" />
          <path
             class="cls-11"
             d="M763.91,358.52h-46.9v46.91h46.9v-46.91ZM719.1,360.61h42.72v42.72h-42.72v-42.72Z"
             id="path295" />
          <path
             class="cls-11"
             d="M853.53,358.52h-46.9v46.91h46.9v-46.91ZM808.72,360.61h42.72v42.72h-42.72v-42.72Z"
             id="path296" />
          <path
             class="cls-11"
             d="M539.84,403.34h-46.9v46.91h46.9v-46.91ZM495.03,405.43h42.72v42.72h-42.72v-42.72Z"
             id="path297" />
          <path
             class="cls-11"
             d="M629.47,403.34h-46.9v46.91h46.9v-46.91ZM584.66,405.43h42.72v42.72h-42.72v-42.72Z"
             id="path298" />
          <path
             class="cls-11"
             d="M719.1,403.34h-46.9v46.91h46.9v-46.91ZM674.28,405.43h42.72v42.72h-42.72v-42.72Z"
             id="path299" />
          <path
             class="cls-11"
             d="M808.72,403.34h-46.9v46.91h46.9v-46.91ZM763.91,405.43h42.72v42.72h-42.72v-42.72Z"
             id="path300" />
          <path
             class="cls-11"
             d="M898.35,403.34h-46.9v46.91h46.9v-46.91ZM853.53,405.43h42.72v42.72h-42.72v-42.72Z"
             id="path301" />
          <path
             class="cls-11"
             d="M46.9,448.1H0v46.91h46.9v-46.91ZM2.09,450.19h42.72v42.72H2.09v-42.72Z"
             id="path302" />
          <path
             class="cls-11"
             d="M136.53,448.1h-46.9v46.91h46.9v-46.91ZM91.72,450.19h42.72v42.72h-42.72v-42.72Z"
             id="path303" />
          <path
             class="cls-11"
             d="M226.15,448.1h-46.9v46.91h46.9v-46.91ZM181.34,450.19h42.72v42.72h-42.72v-42.72Z"
             id="path304" />
          <path
             class="cls-11"
             d="M315.78,448.1h-46.9v46.91h46.9v-46.91ZM270.97,450.19h42.72v42.72h-42.72v-42.72Z"
             id="path305" />
          <path
             class="cls-11"
             d="M405.41,448.1h-46.9v46.91h46.9v-46.91ZM360.59,450.19h42.72v42.72h-42.72v-42.72Z"
             id="path306" />
          <path
             class="cls-11"
             d="M91.72,492.92h-46.9v46.91h46.9v-46.91ZM46.9,495.01h42.72v42.72h-42.72v-42.72Z"
             id="path307" />
          <path
             class="cls-11"
             d="M181.34,492.92h-46.9v46.91h46.9v-46.91ZM136.53,495.01h42.72v42.72h-42.72v-42.72Z"
             id="path308" />
          <path
             class="cls-11"
             d="M270.97,492.92h-46.9v46.91h46.9v-46.91ZM226.15,495.01h42.72v42.72h-42.72v-42.72Z"
             id="path309" />
          <path
             class="cls-11"
             d="M360.59,492.92h-46.9v46.91h46.9v-46.91ZM315.78,495.01h42.72v42.72h-42.72v-42.72Z"
             id="path310" />
          <path
             class="cls-11"
             d="M450.22,492.92h-46.9v46.91h46.9v-46.91ZM405.41,495.01h42.72v42.72h-42.72v-42.72Z"
             id="path311" />
          <path
             class="cls-11"
             d="M46.9,537.73H0v46.91h46.9v-46.91ZM2.09,539.82h42.72v42.72H2.09v-42.72Z"
             id="path312" />
          <path
             class="cls-11"
             d="M136.53,537.73h-46.9v46.91h46.9v-46.91ZM91.72,539.82h42.72v42.72h-42.72v-42.72Z"
             id="path313" />
          <path
             class="cls-11"
             d="M226.15,537.73h-46.9v46.91h46.9v-46.91ZM181.34,539.82h42.72v42.72h-42.72v-42.72Z"
             id="path314" />
          <path
             class="cls-11"
             d="M315.78,537.73h-46.9v46.91h46.9v-46.91ZM270.97,539.82h42.72v42.72h-42.72v-42.72Z"
             id="path315" />
          <path
             class="cls-11"
             d="M405.41,537.73h-46.9v46.91h46.9v-46.91ZM360.59,539.82h42.72v42.72h-42.72v-42.72Z"
             id="path316" />
          <path
             class="cls-11"
             d="M91.72,582.55h-46.9v46.91h46.9v-46.91ZM46.9,584.64h42.72v42.72h-42.72v-42.72Z"
             id="path317" />
          <path
             class="cls-11"
             d="M181.34,582.55h-46.9v46.91h46.9v-46.91ZM136.53,584.64h42.72v42.72h-42.72v-42.72Z"
             id="path318" />
          <path
             class="cls-11"
             d="M270.97,582.55h-46.9v46.91h46.9v-46.91ZM226.15,584.64h42.72v42.72h-42.72v-42.72Z"
             id="path319" />
          <path
             class="cls-11"
             d="M360.59,582.55h-46.9v46.91h46.9v-46.91ZM315.78,584.64h42.72v42.72h-42.72v-42.72Z"
             id="path320" />
          <path
             class="cls-11"
             d="M450.22,582.55h-46.9v46.91h46.9v-46.91ZM405.41,584.64h42.72v42.72h-42.72v-42.72Z"
             id="path321" />
          <path
             class="cls-11"
             d="M46.9,627.36H0v46.91h46.9v-46.91ZM2.09,629.45h42.72v42.72H2.09v-42.72Z"
             id="path322" />
          <path
             class="cls-11"
             d="M136.53,627.36h-46.9v46.91h46.9v-46.91ZM91.72,629.45h42.72v42.72h-42.72v-42.72Z"
             id="path323" />
          <path
             class="cls-11"
             d="M226.15,627.36h-46.9v46.91h46.9v-46.91ZM181.34,629.45h42.72v42.72h-42.72v-42.72Z"
             id="path324" />
          <path
             class="cls-11"
             d="M315.78,627.36h-46.9v46.91h46.9v-46.91ZM270.97,629.45h42.72v42.72h-42.72v-42.72Z"
             id="path325" />
          <path
             class="cls-11"
             d="M405.41,627.36h-46.9v46.91h46.9v-46.91ZM360.59,629.45h42.72v42.72h-42.72v-42.72Z"
             id="path326" />
          <path
             class="cls-11"
             d="M91.72,672.18h-46.9v46.91h46.9v-46.91ZM46.9,674.27h42.72v42.72h-42.72v-42.72Z"
             id="path327" />
          <path
             class="cls-11"
             d="M181.34,672.18h-46.9v46.91h46.9v-46.91ZM136.53,674.27h42.72v42.72h-42.72v-42.72Z"
             id="path328" />
          <path
             class="cls-11"
             d="M270.97,672.18h-46.9v46.91h46.9v-46.91ZM226.15,674.27h42.72v42.72h-42.72v-42.72Z"
             id="path329" />
          <path
             class="cls-11"
             d="M360.59,672.18h-46.9v46.91h46.9v-46.91ZM315.78,674.27h42.72v42.72h-42.72v-42.72Z"
             id="path330" />
          <path
             class="cls-11"
             d="M450.22,672.18h-46.9v46.91h46.9v-46.91ZM405.41,674.27h42.72v42.72h-42.72v-42.72Z"
             id="path331" />
          <path
             class="cls-11"
             d="M46.9,716.99H0v46.91h46.9v-46.91ZM2.09,719.09h42.72v42.72H2.09v-42.72Z"
             id="path332" />
          <path
             class="cls-11"
             d="M136.53,716.99h-46.9v46.91h46.9v-46.91ZM91.72,719.09h42.72v42.72h-42.72v-42.72Z"
             id="path333" />
          <path
             class="cls-11"
             d="M226.15,716.99h-46.9v46.91h46.9v-46.91ZM181.34,719.09h42.72v42.72h-42.72v-42.72Z"
             id="path334" />
          <path
             class="cls-11"
             d="M315.78,716.99h-46.9v46.91h46.9v-46.91ZM270.97,719.09h42.72v42.72h-42.72v-42.72Z"
             id="path335" />
          <path
             class="cls-11"
             d="M405.41,716.99h-46.9v46.91h46.9v-46.91ZM360.59,719.09h42.72v42.72h-42.72v-42.72Z"
             id="path336" />
          <path
             class="cls-11"
             d="M91.72,761.81h-46.9v46.91h46.9v-46.91ZM46.9,763.9h42.72v42.72h-42.72v-42.72Z"
             id="path337" />
          <path
             class="cls-11"
             d="M181.34,761.81h-46.9v46.91h46.9v-46.91ZM136.53,763.9h42.72v42.72h-42.72v-42.72Z"
             id="path338" />
          <path
             class="cls-11"
             d="M270.97,761.81h-46.9v46.91h46.9v-46.91ZM226.15,763.9h42.72v42.72h-42.72v-42.72Z"
             id="path339" />
          <path
             class="cls-11"
             d="M360.59,761.81h-46.9v46.91h46.9v-46.91ZM315.78,763.9h42.72v42.72h-42.72v-42.72Z"
             id="path340" />
          <path
             class="cls-11"
             d="M450.22,761.81h-46.9v46.91h46.9v-46.91ZM405.41,763.9h42.72v42.72h-42.72v-42.72Z"
             id="path341" />
          <path
             class="cls-11"
             d="M46.9,806.63H0v46.91h46.9v-46.91ZM2.09,808.72h42.72v42.72H2.09v-42.72Z"
             id="path342" />
          <path
             class="cls-11"
             d="M136.53,806.63h-46.9v46.91h46.9v-46.91ZM91.72,808.72h42.72v42.72h-42.72v-42.72Z"
             id="path343" />
          <path
             class="cls-11"
             d="M226.15,806.63h-46.9v46.91h46.9v-46.91ZM181.34,808.72h42.72v42.72h-42.72v-42.72Z"
             id="path344" />
          <path
             class="cls-11"
             d="M315.78,806.63h-46.9v46.91h46.9v-46.91ZM270.97,808.72h42.72v42.72h-42.72v-42.72Z"
             id="path345" />
          <path
             class="cls-11"
             d="M405.41,806.63h-46.9v46.91h46.9v-46.91ZM360.59,808.72h42.72v42.72h-42.72v-42.72Z"
             id="path346" />
          <path
             class="cls-11"
             d="M91.72,851.44h-46.9v46.91h46.9v-46.91ZM46.9,853.53h42.72v42.72h-42.72v-42.72Z"
             id="path347" />
          <path
             class="cls-11"
             d="M181.34,851.44h-46.9v46.91h46.9v-46.91ZM136.53,853.53h42.72v42.72h-42.72v-42.72Z"
             id="path348" />
          <path
             class="cls-11"
             d="M270.97,851.44h-46.9v46.91h46.9v-46.91ZM226.15,853.53h42.72v42.72h-42.72v-42.72Z"
             id="path349" />
          <path
             class="cls-11"
             d="M360.59,851.44h-46.9v46.91h46.9v-46.91ZM315.78,853.53h42.72v42.72h-42.72v-42.72Z"
             id="path350" />
          <path
             class="cls-11"
             d="M450.22,851.44h-46.9v46.91h46.9v-46.91ZM405.41,853.53h42.72v42.72h-42.72v-42.72Z"
             id="path351" />
          <path
             class="cls-11"
             d="M495.03,448.1h-46.9v46.91h46.9v-46.91ZM450.22,450.19h42.72v42.72h-42.72v-42.72Z"
             id="path352" />
          <path
             class="cls-11"
             d="M584.66,448.1h-46.9v46.91h46.9v-46.91ZM539.84,450.19h42.72v42.72h-42.72v-42.72Z"
             id="path353" />
          <path
             class="cls-11"
             d="M674.28,448.1h-46.9v46.91h46.9v-46.91ZM629.47,450.19h42.72v42.72h-42.72v-42.72Z"
             id="path354" />
          <path
             class="cls-11"
             d="M763.91,448.1h-46.9v46.91h46.9v-46.91ZM719.1,450.19h42.72v42.72h-42.72v-42.72Z"
             id="path355" />
          <path
             class="cls-11"
             d="M853.53,448.1h-46.9v46.91h46.9v-46.91ZM808.72,450.19h42.72v42.72h-42.72v-42.72Z"
             id="path356" />
          <path
             class="cls-11"
             d="M539.84,492.92h-46.9v46.91h46.9v-46.91ZM495.03,495.01h42.72v42.72h-42.72v-42.72Z"
             id="path357" />
          <path
             class="cls-11"
             d="M629.47,492.92h-46.9v46.91h46.9v-46.91ZM584.66,495.01h42.72v42.72h-42.72v-42.72Z"
             id="path358" />
          <path
             class="cls-11"
             d="M719.1,492.92h-46.9v46.91h46.9v-46.91ZM674.28,495.01h42.72v42.72h-42.72v-42.72Z"
             id="path359" />
          <path
             class="cls-11"
             d="M808.72,492.92h-46.9v46.91h46.9v-46.91ZM763.91,495.01h42.72v42.72h-42.72v-42.72Z"
             id="path360" />
          <path
             class="cls-11"
             d="M898.35,492.92h-46.9v46.91h46.9v-46.91ZM853.53,495.01h42.72v42.72h-42.72v-42.72Z"
             id="path361" />
          <path
             class="cls-11"
             d="M495.03,537.73h-46.9v46.91h46.9v-46.91ZM450.22,539.82h42.72v42.72h-42.72v-42.72Z"
             id="path362" />
          <path
             class="cls-11"
             d="M584.66,537.73h-46.9v46.91h46.9v-46.91ZM539.84,539.82h42.72v42.72h-42.72v-42.72Z"
             id="path363" />
          <path
             class="cls-11"
             d="M674.28,537.73h-46.9v46.91h46.9v-46.91ZM629.47,539.82h42.72v42.72h-42.72v-42.72Z"
             id="path364" />
          <path
             class="cls-11"
             d="M763.91,537.73h-46.9v46.91h46.9v-46.91ZM719.1,539.82h42.72v42.72h-42.72v-42.72Z"
             id="path365" />
          <path
             class="cls-11"
             d="M853.53,537.73h-46.9v46.91h46.9v-46.91ZM808.72,539.82h42.72v42.72h-42.72v-42.72Z"
             id="path366" />
          <path
             class="cls-11"
             d="M539.84,582.55h-46.9v46.91h46.9v-46.91ZM495.03,584.64h42.72v42.72h-42.72v-42.72Z"
             id="path367" />
          <path
             class="cls-11"
             d="M629.47,582.55h-46.9v46.91h46.9v-46.91ZM584.66,584.64h42.72v42.72h-42.72v-42.72Z"
             id="path368" />
          <path
             class="cls-11"
             d="M719.1,582.55h-46.9v46.91h46.9v-46.91ZM674.28,584.64h42.72v42.72h-42.72v-42.72Z"
             id="path369" />
          <path
             class="cls-11"
             d="M808.72,582.55h-46.9v46.91h46.9v-46.91ZM763.91,584.64h42.72v42.72h-42.72v-42.72Z"
             id="path370" />
          <path
             class="cls-11"
             d="M898.35,582.55h-46.9v46.91h46.9v-46.91ZM853.53,584.64h42.72v42.72h-42.72v-42.72Z"
             id="path371" />
          <path
             class="cls-11"
             d="M495.03,627.36h-46.9v46.91h46.9v-46.91ZM450.22,629.45h42.72v42.72h-42.72v-42.72Z"
             id="path372" />
          <path
             class="cls-11"
             d="M584.66,627.36h-46.9v46.91h46.9v-46.91ZM539.84,629.45h42.72v42.72h-42.72v-42.72Z"
             id="path373" />
          <path
             class="cls-11"
             d="M674.28,627.36h-46.9v46.91h46.9v-46.91ZM629.47,629.45h42.72v42.72h-42.72v-42.72Z"
             id="path374" />
          <path
             class="cls-11"
             d="M763.91,627.36h-46.9v46.91h46.9v-46.91ZM719.1,629.45h42.72v42.72h-42.72v-42.72Z"
             id="path375" />
          <path
             class="cls-11"
             d="M853.53,627.36h-46.9v46.91h46.9v-46.91ZM808.72,629.45h42.72v42.72h-42.72v-42.72Z"
             id="path376" />
          <path
             class="cls-11"
             d="M539.84,672.18h-46.9v46.91h46.9v-46.91ZM495.03,674.27h42.72v42.72h-42.72v-42.72Z"
             id="path377" />
          <path
             class="cls-11"
             d="M629.47,672.18h-46.9v46.91h46.9v-46.91ZM584.66,674.27h42.72v42.72h-42.72v-42.72Z"
             id="path378" />
          <path
             class="cls-11"
             d="M719.1,672.18h-46.9v46.91h46.9v-46.91ZM674.28,674.27h42.72v42.72h-42.72v-42.72Z"
             id="path379" />
          <path
             class="cls-11"
             d="M808.72,672.18h-46.9v46.91h46.9v-46.91ZM763.91,674.27h42.72v42.72h-42.72v-42.72Z"
             id="path380" />
          <path
             class="cls-11"
             d="M898.35,672.18h-46.9v46.91h46.9v-46.91ZM853.53,674.27h42.72v42.72h-42.72v-42.72Z"
             id="path381" />
          <path
             class="cls-11"
             d="M495.03,716.99h-46.9v46.91h46.9v-46.91ZM450.22,719.09h42.72v42.72h-42.72v-42.72Z"
             id="path382" />
          <path
             class="cls-11"
             d="M584.66,716.99h-46.9v46.91h46.9v-46.91ZM539.84,719.09h42.72v42.72h-42.72v-42.72Z"
             id="path383" />
          <path
             class="cls-11"
             d="M674.28,716.99h-46.9v46.91h46.9v-46.91ZM629.47,719.09h42.72v42.72h-42.72v-42.72Z"
             id="path384" />
          <path
             class="cls-11"
             d="M763.91,716.99h-46.9v46.91h46.9v-46.91ZM719.1,719.09h42.72v42.72h-42.72v-42.72Z"
             id="path385" />
          <path
             class="cls-11"
             d="M853.53,716.99h-46.9v46.91h46.9v-46.91ZM808.72,719.09h42.72v42.72h-42.72v-42.72Z"
             id="path386" />
          <path
             class="cls-11"
             d="M539.84,761.81h-46.9v46.91h46.9v-46.91ZM495.03,763.9h42.72v42.72h-42.72v-42.72Z"
             id="path387" />
          <path
             class="cls-11"
             d="M629.47,761.81h-46.9v46.91h46.9v-46.91ZM584.66,763.9h42.72v42.72h-42.72v-42.72Z"
             id="path388" />
          <path
             class="cls-11"
             d="M719.1,761.81h-46.9v46.91h46.9v-46.91ZM674.28,763.9h42.72v42.72h-42.72v-42.72Z"
             id="path389" />
          <path
             class="cls-11"
             d="M808.72,761.81h-46.9v46.91h46.9v-46.91ZM763.91,763.9h42.72v42.72h-42.72v-42.72Z"
             id="path390" />
          <path
             class="cls-11"
             d="M898.35,761.81h-46.9v46.91h46.9v-46.91ZM853.53,763.9h42.72v42.72h-42.72v-42.72Z"
             id="path391" />
          <path
             class="cls-11"
             d="M495.03,806.63h-46.9v46.91h46.9v-46.91ZM450.22,808.72h42.72v42.72h-42.72v-42.72Z"
             id="path392" />
          <path
             class="cls-11"
             d="M584.66,806.63h-46.9v46.91h46.9v-46.91ZM539.84,808.72h42.72v42.72h-42.72v-42.72Z"
             id="path393" />
          <path
             class="cls-11"
             d="M674.28,806.63h-46.9v46.91h46.9v-46.91ZM629.47,808.72h42.72v42.72h-42.72v-42.72Z"
             id="path394" />
          <path
             class="cls-11"
             d="M763.91,806.63h-46.9v46.91h46.9v-46.91ZM719.1,808.72h42.72v42.72h-42.72v-42.72Z"
             id="path395" />
          <path
             class="cls-11"
             d="M853.53,806.63h-46.9v46.91h46.9v-46.91ZM808.72,808.72h42.72v42.72h-42.72v-42.72Z"
             id="path396" />
          <path
             class="cls-11"
             d="M539.84,851.44h-46.9v46.91h46.9v-46.91ZM495.03,853.53h42.72v42.72h-42.72v-42.72Z"
             id="path397" />
          <path
             class="cls-11"
             d="M629.47,851.44h-46.9v46.91h46.9v-46.91ZM584.66,853.53h42.72v42.72h-42.72v-42.72Z"
             id="path398" />
          <path
             class="cls-11"
             d="M719.1,851.44h-46.9v46.91h46.9v-46.91ZM674.28,853.53h42.72v42.72h-42.72v-42.72Z"
             id="path399" />
          <path
             class="cls-11"
             d="M808.72,851.44h-46.9v46.91h46.9v-46.91ZM763.91,853.53h42.72v42.72h-42.72v-42.72Z"
             id="path400" />
          <path
             class="cls-11"
             d="M898.35,851.44h-46.9v46.91h46.9v-46.91ZM853.53,853.53h42.72v42.72h-42.72v-42.72Z"
             id="path401" />
        </g>
      </g>
    </pattern>
    <pattern
       id="New_Pattern_2-2"
       data-name="New Pattern 2"
       patternTransform="translate(6905.83 1060.04) scale(.91 .93)"
       xlink:href="#New_Pattern_2" />
    <pattern
       id="New_Pattern_2-3"
       data-name="New Pattern 2"
       patternTransform="translate(7044.07 914.9) scale(.91 .93)"
       xlink:href="#New_Pattern_2" />
    <pattern
       id="New_Pattern_2-4"
       data-name="New Pattern 2"
       patternTransform="translate(7603.28 -615.73) scale(.91 .93)"
       xlink:href="#New_Pattern_2" />
    <clipPath
       id="clippath">
      <rect
         class="cls-7"
         x="978.96997"
         y="1723.13"
         width="705.72998"
         height="307.87"
         id="rect402" />
    </clipPath>
    <pattern
       id="New_Pattern_2-5"
       data-name="New Pattern 2"
       patternTransform="translate(5842.38 -616.43) scale(.91 .93)"
       xlink:href="#New_Pattern_2" />
    <clipPath
       id="clippath-1">
      <rect
         class="cls-7"
         x="37.68"
         y="1722.42"
         width="705.03998"
         height="307.87"
         id="rect403" />
    </clipPath>
    <pattern
       id="New_Pattern_2-6"
       data-name="New Pattern 2"
       patternTransform="translate(7740.48 -2337.06) scale(.91 .93)"
       xlink:href="#New_Pattern_2" />
    <clipPath
       id="clippath-2">
      <rect
         class="cls-7"
         x="1935.78"
         width="705.03998"
         height="307.87"
         id="rect404"
         y="0" />
    </clipPath>
  </defs>
  <g
     class="cls-25"
     id="g434-4-7"
     style="opacity:0.75"
     transform="translate(-228.31,-1012.1587)">
    <g
       id="g420-5-1">
      <path
         class="cls-21"
         d="m 377.67,1322.77 c -4.16,12.71 -12.48,23.55 -19.64,34.85 -5.7,8.98 -10.84,18.85 -12.34,29.24 h 109.23 c -1.5,-10.38 -6.64,-20.26 -12.34,-29.24 -7.17,-11.29 -15.48,-22.14 -19.64,-34.85 h -45.26 z m -12,41.16 c -2.63,4.01 -4.49,8.41 -5.52,13.1 -0.22,0.98 -1.08,1.64 -2.04,1.64 -0.15,0 -0.3,-0.02 -0.45,-0.05 -1.13,-0.25 -1.84,-1.37 -1.59,-2.5 1.14,-5.18 3.2,-10.06 6.11,-14.49 0.64,-0.97 1.93,-1.24 2.9,-0.6 0.97,0.63 1.24,1.93 0.6,2.9 z"
         id="path405-6-0"
         style="fill:#3cc0cc;stroke-width:0px" />
      <path
         class="cls-14"
         d="m 400.3,1084.72 c -8.05,0 -14.62,6.25 -15.15,14.17 h 30.31 c -0.54,-7.91 -7.11,-14.17 -15.15,-14.17 z"
         id="path406-6-5"
         style="fill:#96d6dc;stroke-width:0px" />
      <path
         class="cls-10"
         d="m 232.5,1316.91 h 335.6 c 0,0 0,-211.15 0,-211.15 H 232.5 Z m 167.8,-4.89 c -6.01,0 -10.9,-4.89 -10.9,-10.9 0,-6.01 4.89,-10.9 10.9,-10.9 6.01,0 10.9,4.89 10.9,10.9 0,6.01 -4.89,10.9 -10.9,10.9 z M 246.72,1124.41 c 0,-2.31 1.88,-4.19 4.19,-4.19 H 549.7 c 2.31,0 4.19,1.88 4.19,4.19 v 152.88 c 0,2.31 -1.88,4.19 -4.19,4.19 H 250.91 c -2.31,0 -4.19,-1.88 -4.19,-4.19 z"
         id="path407-9-2"
         style="fill:#f26489;stroke-width:0px" />
      <path
         class="cls-19"
         d="M 568.1,1101.57 H 418.66 c 0.69,-0.83 1.05,-1.89 0.97,-2.97 -0.69,-10.13 -9.18,-18.07 -19.33,-18.07 -10.15,0 -18.65,7.94 -19.33,18.07 -0.07,1.08 0.28,2.14 0.97,2.97 H 232.5 c -2.31,0 -4.19,1.88 -4.19,4.19 v 211.15 c 0,2.31 1.88,4.19 4.19,4.19 h 141.34 c -0.05,0.12 -0.11,0.24 -0.15,0.36 -3.1,9.48 -8.64,17.84 -14.49,26.7 -1.56,2.35 -3.16,4.78 -4.7,7.21 -5.43,8.56 -11.45,19.46 -13.04,31.48 H 287.4 c -1.16,0 -2.09,0.94 -2.09,2.09 v 20.49 c 0,1.16 0.94,2.09 2.09,2.09 h 225.81 c 1.16,0 2.09,-0.94 2.09,-2.09 v -20.49 c 0,-1.16 -0.94,-2.09 -2.09,-2.09 h -54.06 c -1.59,-12.02 -7.6,-22.92 -13.04,-31.48 -1.54,-2.43 -3.15,-4.86 -4.7,-7.21 -5.86,-8.85 -11.39,-17.22 -14.5,-26.7 -0.04,-0.13 -0.1,-0.24 -0.15,-0.36 H 568.1 c 2.31,0 4.19,-1.88 4.19,-4.19 v -211.15 c 0,-2.31 -1.88,-4.19 -4.19,-4.19 z m -167.8,-16.85 c 8.05,0 14.62,6.25 15.15,14.17 h -30.31 c 0.54,-7.91 7.11,-14.17 15.15,-14.17 z m 110.81,306.32 v 16.3 c 0,0 -221.62,0 -221.62,0 v -16.3 z m -68.54,-33.42 c 5.7,8.98 10.84,18.85 12.34,29.24 H 345.68 c 1.5,-10.38 6.64,-20.26 12.34,-29.24 7.17,-11.29 15.48,-22.14 19.64,-34.85 h 45.26 c 4.16,12.71 12.48,23.55 19.64,34.85 z m 125.53,-40.7 H 232.5 c 0,0 0,-211.15 0,-211.15 h 335.6 z"
         id="path408-7-0"
         style="fill:#665e68;stroke-width:0px" />
      <path
         class="cls-21"
         d="M 549.69,1124.41 H 250.91 c 0,0 0,152.88 0,152.88 H 549.7 c 0,0 0,-152.88 0,-152.88 z M 262.98,1256.8 c 0,1.16 -0.94,2.09 -2.09,2.09 -1.15,0 -2.09,-0.94 -2.09,-2.09 v -13.01 c 0,-1.16 0.94,-2.09 2.09,-2.09 1.15,0 2.09,0.94 2.09,2.09 z m 278.91,-106.85 c 0,1.16 -0.94,2.09 -2.09,2.09 -1.15,0 -2.09,-0.94 -2.09,-2.09 v -12.47 c 0,-1.16 0.94,-2.09 2.09,-2.09 1.16,0 2.09,0.94 2.09,2.09 z"
         id="path409-2-7"
         style="fill:#3cc0cc;stroke-width:0px" />
      <path
         class="cls-19"
         d="M 250.91,1281.48 H 549.7 c 2.31,0 4.19,-1.88 4.19,-4.19 v -152.88 c 0,-2.31 -1.88,-4.19 -4.19,-4.19 H 250.91 c -2.31,0 -4.19,1.88 -4.19,4.19 v 152.88 c 0,2.31 1.88,4.19 4.19,4.19 z m 0,-157.07 H 549.7 c 0,0 0,152.88 0,152.88 H 250.91 c 0,0 0,-152.88 0,-152.88 z"
         id="path410-8-5"
         style="fill:#665e68;stroke-width:0px" />
      <circle
         class="cls-14"
         cx="400.29999"
         cy="1301.12"
         r="6.71"
         id="circle410-5-6"
         style="fill:#96d6dc;stroke-width:0px" />
      <path
         class="cls-19"
         d="m 400.3,1290.21 c -6.01,0 -10.9,4.89 -10.9,10.9 0,6.01 4.89,10.9 10.9,10.9 6.01,0 10.9,-4.89 10.9,-10.9 0,-6.01 -4.89,-10.9 -10.9,-10.9 z m 0,17.62 c -3.71,0 -6.71,-3.01 -6.71,-6.71 0,-3.71 3.01,-6.71 6.71,-6.71 3.71,0 6.71,3.01 6.71,6.71 0,3.71 -3.01,6.71 -6.71,6.71 z"
         id="path411-4-7"
         style="fill:#665e68;stroke-width:0px" />
      <rect
         class="cls-10"
         x="289.48999"
         y="1391.04"
         width="221.62"
         height="16.299999"
         id="rect411-3-6"
         style="fill:#f26489;stroke-width:0px" />
      <path
         class="cls-11"
         d="m 260.88,1241.7 c -1.16,0 -2.09,0.94 -2.09,2.09 v 13.01 c 0,1.16 0.94,2.09 2.09,2.09 1.15,0 2.09,-0.94 2.09,-2.09 v -13.01 c 0,-1.16 -0.94,-2.09 -2.09,-2.09 z"
         id="path412-5-1"
         style="fill:#ffffff;stroke-width:0px" />
      <path
         class="cls-11"
         d="m 539.8,1135.39 c -1.16,0 -2.09,0.94 -2.09,2.09 v 12.47 c 0,1.16 0.94,2.09 2.09,2.09 1.15,0 2.09,-0.94 2.09,-2.09 v -12.47 c 0,-1.16 -0.94,-2.09 -2.09,-2.09 z"
         id="path413-9-6"
         style="fill:#ffffff;stroke-width:0px" />
      <path
         class="cls-11"
         d="m 365.06,1361.03 c -0.97,-0.63 -2.27,-0.37 -2.9,0.6 -2.91,4.44 -4.97,9.31 -6.11,14.49 -0.25,1.13 0.46,2.25 1.59,2.5 0.15,0.03 0.3,0.05 0.45,0.05 0.96,0 1.83,-0.67 2.04,-1.64 1.03,-4.68 2.89,-9.09 5.52,-13.1 0.63,-0.97 0.37,-2.27 -0.6,-2.9 z"
         id="path414-3-6"
         style="fill:#ffffff;stroke-width:0px" />
      <path
         class="cls-14"
         d="m 604.79,1100.89 -1.75,-0.39 c -1.1,-0.25 -2.01,-1.02 -2.43,-2.07 l -0.67,-1.66 c -0.57,-1.42 -1.87,-2.15 -3.19,-2.15 -1.13,0 -2.27,0.55 -2.94,1.68 l -0.91,1.54 c -0.58,0.97 -1.59,1.59 -2.72,1.67 l -1.79,0.12 c -2.83,0.19 -4.22,3.55 -2.34,5.68 l 1.18,1.35 c 0.74,0.85 1.02,2.01 0.75,3.1 l -0.44,1.74 c -0.57,2.27 1.21,4.27 3.31,4.27 0.45,0 0.91,-0.09 1.37,-0.29 l 1.64,-0.71 c 0.43,-0.19 0.9,-0.28 1.36,-0.28 0.64,0 1.27,0.18 1.82,0.53 l 1.52,0.95 c 0.58,0.37 1.21,0.53 1.82,0.53 1.89,0 3.62,-1.61 3.42,-3.75 l -0.17,-1.78 c -0.1,-1.12 0.35,-2.23 1.22,-2.95 l 1.37,-1.15 c 2.18,-1.82 1.33,-5.35 -1.44,-5.97 z"
         id="path415-6-7"
         style="fill:#96d6dc;stroke-width:0px" />
      <path
         class="cls-19"
         d="m 611.44,1102.44 c -0.69,-2.84 -2.88,-5 -5.73,-5.64 l -1.36,-0.3 -0.52,-1.29 c -1.16,-2.9 -3.94,-4.78 -7.08,-4.78 -2.71,0 -5.16,1.39 -6.54,3.73 l -0.71,1.2 -1.39,0.09 c -2.91,0.2 -5.42,2 -6.53,4.7 -1.11,2.7 -0.61,5.74 1.32,7.93 l 0.92,1.04 -0.34,1.35 c -0.58,2.29 -0.08,4.67 1.37,6.53 1.44,1.85 3.69,2.95 6.01,2.95 1.04,0 2.06,-0.21 3.02,-0.63 l 1.28,-0.55 1.18,0.74 c 1.22,0.77 2.62,1.17 4.04,1.17 2.14,0 4.2,-0.91 5.65,-2.51 1.45,-1.59 2.14,-3.66 1.94,-5.82 l -0.13,-1.38 1.07,-0.89 c 2.24,-1.87 3.21,-4.8 2.52,-7.64 z m -5.21,4.42 -1.37,1.15 c -0.87,0.72 -1.32,1.83 -1.22,2.95 l 0.17,1.78 c 0.2,2.14 -1.53,3.75 -3.42,3.75 -0.61,0 -1.23,-0.17 -1.82,-0.53 l -1.52,-0.95 c -0.55,-0.35 -1.19,-0.53 -1.82,-0.53 -0.46,0 -0.92,0.09 -1.36,0.28 l -1.64,0.71 c -0.46,0.2 -0.92,0.29 -1.37,0.29 -2.1,0 -3.89,-2 -3.31,-4.27 l 0.44,-1.74 c 0.28,-1.09 0,-2.25 -0.75,-3.1 l -1.18,-1.35 c -1.87,-2.13 -0.49,-5.49 2.34,-5.68 l 1.79,-0.12 c 1.13,-0.08 2.14,-0.7 2.72,-1.67 l 0.91,-1.54 c 0.67,-1.13 1.81,-1.68 2.94,-1.68 1.31,0 2.62,0.74 3.19,2.15 l 0.67,1.66 c 0.42,1.05 1.33,1.82 2.43,2.07 l 1.75,0.39 c 2.77,0.62 3.62,4.15 1.44,5.97 z"
         id="path416-3-9"
         style="fill:#665e68;stroke-width:0px" />
      <path
         class="cls-9"
         d="m 577.42,1069.5 -1.22,-0.27 c -0.77,-0.17 -1.4,-0.71 -1.7,-1.44 l -0.47,-1.16 c -0.4,-0.99 -1.31,-1.5 -2.23,-1.5 -0.79,0 -1.58,0.38 -2.05,1.17 l -0.64,1.08 c -0.4,0.68 -1.11,1.11 -1.9,1.17 l -1.25,0.08 c -1.98,0.13 -2.95,2.48 -1.64,3.97 l 0.83,0.94 c 0.52,0.59 0.72,1.4 0.52,2.16 l -0.31,1.21 c -0.4,1.59 0.84,2.98 2.31,2.98 0.31,0 0.63,-0.06 0.95,-0.2 l 1.15,-0.5 c 0.3,-0.13 0.63,-0.2 0.95,-0.2 0.44,0 0.89,0.12 1.27,0.37 l 1.06,0.67 c 0.41,0.26 0.84,0.37 1.27,0.37 1.32,0 2.53,-1.12 2.39,-2.62 l -0.12,-1.25 c -0.07,-0.78 0.24,-1.55 0.85,-2.06 l 0.96,-0.8 c 1.52,-1.27 0.93,-3.74 -1.01,-4.17 z"
         id="path417-2-7"
         style="fill:#ffccd9;stroke-width:0px" />
      <path
         class="cls-19"
         d="m 580.88,1077.09 0.23,-0.2 c 1.94,-1.62 2.77,-4.15 2.18,-6.6 -0.59,-2.45 -2.49,-4.32 -4.95,-4.88 l -0.3,-0.07 -0.11,-0.28 c -1.01,-2.51 -3.41,-4.13 -6.11,-4.13 -2.34,0 -4.46,1.21 -5.66,3.22 l -0.16,0.26 -0.31,0.02 c -2.52,0.17 -4.68,1.72 -5.64,4.06 -0.96,2.33 -0.52,4.96 1.14,6.86 l 0.2,0.23 -0.07,0.3 c -0.5,1.98 -0.07,4.04 1.18,5.65 1.24,1.6 3.19,2.55 5.19,2.55 0.9,0 1.78,-0.18 2.61,-0.54 l 0.28,-0.12 0.26,0.16 c 1.06,0.66 2.26,1.01 3.5,1.01 1.85,0 3.63,-0.79 4.88,-2.16 1.24,-1.36 1.85,-3.19 1.68,-5.04 l -0.03,-0.31 z m -2.45,-3.41 -0.96,0.8 c -0.6,0.5 -0.92,1.27 -0.85,2.06 l 0.12,1.25 c 0.14,1.5 -1.07,2.62 -2.39,2.62 -0.42,0 -0.86,-0.12 -1.27,-0.37 l -1.06,-0.67 c -0.39,-0.24 -0.83,-0.37 -1.27,-0.37 -0.32,0 -0.64,0.06 -0.95,0.2 l -1.15,0.5 c -0.32,0.14 -0.64,0.2 -0.95,0.2 -1.47,0 -2.71,-1.4 -2.31,-2.98 l 0.31,-1.21 c 0.19,-0.76 0,-1.57 -0.52,-2.16 l -0.83,-0.94 c -1.31,-1.49 -0.34,-3.83 1.64,-3.97 l 1.25,-0.08 c 0.79,-0.05 1.5,-0.49 1.9,-1.17 l 0.64,-1.08 c 0.47,-0.79 1.26,-1.17 2.05,-1.17 0.92,0 1.83,0.51 2.23,1.5 l 0.47,1.16 c 0.29,0.73 0.93,1.27 1.7,1.44 l 1.22,0.27 c 1.93,0.44 2.53,2.9 1.01,4.17 z"
         id="path418-0-8"
         style="fill:#665e68;stroke-width:0px" />
      <path
         class="cls-17"
         d="m 304.05,1347.2 -1.23,-0.24 c -0.77,-0.15 -1.42,-0.67 -1.74,-1.39 l -0.5,-1.15 c -0.41,-0.95 -1.3,-1.44 -2.2,-1.44 -0.81,0 -1.63,0.41 -2.09,1.23 l -0.61,1.09 c -0.38,0.69 -1.08,1.15 -1.86,1.22 l -1.25,0.12 c -1.97,0.19 -2.87,2.56 -1.52,4.01 l 0.85,0.91 c 0.54,0.58 0.76,1.38 0.59,2.15 l -0.27,1.22 c -0.35,1.57 0.89,2.91 2.33,2.91 0.33,0 0.68,-0.07 1.02,-0.23 l 1.13,-0.53 c 0.32,-0.15 0.67,-0.22 1.01,-0.22 0.42,0 0.84,0.11 1.21,0.33 l 1.08,0.63 c 0.39,0.23 0.81,0.34 1.21,0.34 1.35,0 2.56,-1.17 2.38,-2.69 l -0.15,-1.24 c -0.1,-0.78 0.2,-1.56 0.79,-2.08 l 0.94,-0.83 c 1.48,-1.32 0.82,-3.76 -1.13,-4.14 z"
         id="path419-5-2"
         style="fill:#c1d731;stroke-width:0px" />
      <path
         class="cls-19"
         d="m 309.94,1347.81 c -0.67,-2.43 -2.62,-4.25 -5.09,-4.73 l -0.3,-0.06 -0.12,-0.28 c -1.05,-2.4 -3.42,-3.95 -6.04,-3.95 -2.39,0 -4.59,1.3 -5.75,3.39 l -0.15,0.27 -0.3,0.03 c -2.51,0.24 -4.63,1.86 -5.52,4.22 -0.89,2.36 -0.38,4.97 1.34,6.82 l 0.21,0.22 -0.07,0.3 c -0.43,1.96 0.04,3.98 1.29,5.53 1.26,1.57 3.13,2.47 5.14,2.47 0.96,0 1.9,-0.21 2.79,-0.62 l 0.28,-0.13 0.26,0.16 c 1.02,0.6 2.17,0.91 3.33,0.91 1.89,0 3.69,-0.81 4.94,-2.23 1.24,-1.4 1.82,-3.28 1.59,-5.16 l -0.04,-0.3 0.23,-0.2 c 1.89,-1.67 2.65,-4.23 1.98,-6.66 z m -4.76,3.53 -0.94,0.83 c -0.59,0.52 -0.88,1.3 -0.79,2.08 l 0.15,1.24 c 0.19,1.52 -1.03,2.69 -2.38,2.69 -0.4,0 -0.82,-0.1 -1.21,-0.34 l -1.08,-0.63 c -0.37,-0.22 -0.79,-0.33 -1.21,-0.33 -0.34,0 -0.69,0.07 -1.01,0.22 l -1.13,0.53 c -0.34,0.16 -0.68,0.23 -1.02,0.23 -1.44,0 -2.68,-1.34 -2.33,-2.91 l 0.27,-1.22 c 0.17,-0.77 -0.05,-1.57 -0.59,-2.15 l -0.85,-0.91 c -1.35,-1.45 -0.46,-3.82 1.52,-4.01 l 1.25,-0.12 c 0.78,-0.08 1.48,-0.53 1.86,-1.22 l 0.61,-1.09 c 0.46,-0.83 1.28,-1.23 2.09,-1.23 0.89,0 1.78,0.49 2.2,1.44 l 0.5,1.15 c 0.31,0.72 0.96,1.24 1.74,1.39 l 1.23,0.24 c 1.95,0.38 2.61,2.82 1.13,4.14 z"
         id="path420-0-2"
         style="fill:#665e68;stroke-width:0px" />
    </g>
    <g
       id="g433-3-1">
      <path
         class="cls-17"
         d="m 393.58,1186.41 15.91,0.18 c -0.4,-0.3 -0.83,-0.89 -0.76,-2 0.3,-4.56 0.51,-9.27 0.72,-13.83 0.72,-16.05 1.47,-32.65 6.24,-48.1 0.14,-0.44 0.28,-0.88 0.42,-1.32 -0.24,-0.1 -0.48,-0.2 -0.72,-0.31 -4.33,-2 -8.05,-5.84 -11.35,-11.73 -0.54,-0.97 -1.08,-1.97 -1.59,-3 -3.08,5.08 -6.9,9.04 -11.25,11.63 -2.19,1.3 -4.7,2.27 -7.32,2.84 3.61,8.92 5.28,18.63 6.9,28.05 l 0.36,2.08 c 2.41,13.9 3.19,25.16 2.45,35.42 0,0.03 -0.01,0.06 -0.02,0.09 z"
         id="path421-5-3"
         style="fill:#c1d731;stroke-width:0px" />
      <path
         class="cls-17"
         d="m 404.69,1014.89 c -0.19,0 -0.39,0 -0.58,0 -12.84,-0.06 -25.81,2.5 -37.5,7.86 -43.66,20.02 -52.07,79.18 -29.94,118.08 9.39,16.51 24.69,26.27 40.37,36.33 2.84,1.83 5.83,3.81 7.25,6.88 0.34,0.73 0.57,1.49 0.74,2.27 l 5.86,0.07 c 0,-0.08 -0.01,-0.17 0,-0.25 0.72,-10.03 -0.05,-21.08 -2.42,-34.76 l -0.36,-2.08 c -1.63,-9.48 -3.31,-19.25 -6.98,-28.06 -6.06,0.63 -12.27,-0.97 -15.99,-5.71 -2.66,-3.39 -1.93,-6.39 -0.35,-8.06 1.96,-2.08 6,-2.94 9.62,-0.43 3.12,2.17 5.77,5.63 8.1,10.58 0.09,0.19 0.18,0.38 0.27,0.58 2.64,-0.5 5.1,-1.43 7.04,-2.58 5.15,-3.06 8.76,-7.81 11.21,-12.26 -2.73,-5.97 -4.98,-12.64 -6.52,-19.34 -0.69,-3.02 -1.98,-8.65 0.05,-12.83 1.66,-3.42 4.15,-3.8 5.49,-3.72 3.43,0.21 6.7,3.68 7.76,6.78 3.19,9.3 0.69,18.93 -1.97,25.37 -0.55,1.32 -1.13,2.6 -1.76,3.82 0.75,1.58 1.54,3.11 2.36,4.57 3.01,5.37 6.32,8.84 10.11,10.59 0.16,0.08 0.33,0.15 0.49,0.22 2.97,-7.7 7.1,-13.27 12.31,-16.58 2.75,-1.75 5.95,-1.96 8.15,-0.55 1.91,1.23 2.79,3.52 2.41,6.29 -0.7,5.09 -4.01,9.86 -8.62,12.46 -3.78,2.13 -8.36,2.73 -12.57,1.77 -0.14,0.43 -0.28,0.86 -0.42,1.3 -4.67,15.12 -5.41,31.54 -6.12,47.42 -0.19,4.32 -0.39,8.78 -0.67,13.13 0.07,0.05 0.13,0.11 0.18,0.17 0.55,0.6 0.48,1.48 0.12,2.03 -0.1,0.15 -0.22,0.29 -0.36,0.39 l 4.36,0.05 c 0.19,-0.78 0.44,-1.54 0.79,-2.26 1.49,-3.03 4.52,-4.95 7.41,-6.71 13.66,-8.34 27.81,-16.98 38.01,-29.57 11.59,-14.31 15.46,-32.72 15.75,-50.73 0.31,-19.54 -4.26,-40.4 -16.29,-56.36 -13.38,-17.75 -35.01,-25.88 -56.79,-26.13 z m -65.5,44.75 c -0.37,0.23 -0.65,0.82 -0.89,1.35 -2.2,4.99 -3.09,10.5 -2.57,15.93 0.07,0.75 -0.48,1.42 -1.23,1.49 -0.05,0 -0.1,0 -0.15,0 -0.69,0 -1.27,-0.53 -1.34,-1.23 -0.57,-5.89 0.4,-11.87 2.79,-17.29 0.43,-0.97 0.96,-1.95 1.94,-2.56 0.64,-0.4 1.48,-0.2 1.88,0.43 0.4,0.64 0.21,1.48 -0.43,1.88 z m 128.24,54.57 c 0.75,0.06 1.32,0.71 1.26,1.46 -0.55,7.48 -3.11,14.69 -7.39,20.86 -0.27,0.39 -0.7,0.59 -1.14,0.59 -0.26,0 -0.53,-0.08 -0.76,-0.24 -0.62,-0.43 -0.77,-1.28 -0.34,-1.9 4,-5.76 6.39,-12.51 6.91,-19.5 0.06,-0.75 0.71,-1.31 1.46,-1.26 z"
         id="path422-9-4"
         style="fill:#c1d731;stroke-width:0px" />
      <path
         class="cls-17"
         d="m 372.84,1109.25 c -1.04,-0.72 -2.14,-1.03 -3.15,-1.05 -1.21,-0.01 -2.28,0.41 -2.93,1.1 -1.05,1.11 -0.86,2.76 0.51,4.51 3,3.82 7.88,5.03 12.65,4.72 -2.09,-4.39 -4.41,-7.43 -7.09,-9.28 z"
         id="path423-2-3"
         style="fill:#c1d731;stroke-width:0px" />
      <path
         class="cls-17"
         d="m 437.21,1107.56 c 0.16,-1.2 0.09,-2.8 -1.19,-3.62 -1.29,-0.83 -3.39,-0.61 -5.22,0.56 -4.67,2.97 -8.42,8.03 -11.16,15.08 3.47,0.72 7.21,0.19 10.3,-1.56 3.83,-2.16 6.68,-6.26 7.26,-10.46 z"
         id="path424-7-5"
         style="fill:#c1d731;stroke-width:0px" />
      <path
         class="cls-17"
         d="m 405.21,1075.1 c -0.86,-2.51 -3.36,-4.82 -5.34,-4.95 -0.05,0 -0.11,0 -0.18,0 -0.55,0 -1.7,0.16 -2.68,2.19 -1.61,3.31 -0.46,8.33 0.16,11.03 1.32,5.78 3.19,11.52 5.44,16.79 0.25,-0.55 0.48,-1.09 0.7,-1.61 2.48,-6.01 4.82,-14.95 1.91,-23.45 z"
         id="path425-3-2"
         style="fill:#c1d731;stroke-width:0px" />
      <path
         class="cls-19"
         d="m 463.65,1039.38 c -6.7,-8.89 -15.56,-15.78 -26.33,-20.49 -9.78,-4.27 -21.05,-6.6 -32.6,-6.73 -0.2,0 -0.4,0 -0.6,0 -13.57,-0.07 -26.94,2.74 -38.66,8.11 -9.55,4.38 -17.8,10.7 -24.54,18.8 -6.28,7.54 -11.09,16.44 -14.32,26.44 -3.94,12.23 -5.32,25.78 -3.99,39.18 1.34,13.45 5.37,26.41 11.67,37.48 4.35,7.65 10.34,14.59 18.31,21.21 7.03,5.84 14.96,10.93 22.63,15.86 l 0.32,0.21 c 2.9,1.86 5.2,3.47 6.25,5.73 0.16,0.34 0.29,0.71 0.39,1.09 l -14.63,-0.17 c -1.51,-0.02 -2.74,1.19 -2.76,2.7 l -0.19,16.59 c -0.02,1.51 1.19,2.74 2.7,2.76 l 5.98,0.07 c -0.09,0.26 -0.14,0.54 -0.14,0.83 l -0.14,12.24 c -0.02,1.51 1.19,2.74 2.7,2.76 l 48.25,0.55 c 1.51,0.02 2.74,-1.19 2.76,-2.7 l 0.14,-12.24 c 0,-0.29 -0.04,-0.57 -0.12,-0.84 l 5.98,0.07 c 1.51,0.02 2.74,-1.19 2.76,-2.7 l 0.19,-16.59 c 0.02,-1.51 -1.19,-2.74 -2.7,-2.76 l -14.34,-0.16 c 0.12,-0.38 0.25,-0.74 0.42,-1.08 1.1,-2.24 3.44,-3.79 6.38,-5.59 13.87,-8.47 28.21,-17.22 38.7,-30.19 10.51,-12.98 16.01,-30.61 16.35,-52.41 0.17,-10.6 -1.05,-20.79 -3.61,-30.28 -2.85,-10.57 -7.3,-19.91 -13.23,-27.77 z m -39.65,182.49 -48.25,-0.55 0.14,-12.24 48.25,0.55 z m 8.94,-32.29 -0.19,16.59 -65.41,-0.75 0.19,-16.59 z m -41.8,-38.68 -0.36,-2.08 c -1.62,-9.42 -3.29,-19.12 -6.9,-28.05 2.62,-0.57 5.13,-1.54 7.32,-2.84 4.35,-2.59 8.17,-6.55 11.25,-11.63 0.52,1.03 1.05,2.03 1.59,3 3.3,5.89 7.02,9.73 11.35,11.73 0.24,0.11 0.48,0.21 0.72,0.31 -0.14,0.43 -0.28,0.87 -0.42,1.32 -4.77,15.45 -5.52,32.05 -6.24,48.1 -0.2,4.56 -0.42,9.27 -0.72,13.83 -0.07,1.11 0.36,1.69 0.76,2 l -15.91,-0.18 c 0,0 0.01,-0.06 0.02,-0.09 0.73,-10.26 -0.05,-21.52 -2.45,-35.42 z m 6.02,-67.53 c -0.62,-2.7 -1.77,-7.72 -0.16,-11.03 0.99,-2.03 2.13,-2.2 2.68,-2.19 0.07,0 0.13,0 0.18,0 1.99,0.12 4.48,2.43 5.34,4.95 2.91,8.5 0.57,17.44 -1.91,23.45 -0.21,0.52 -0.45,1.06 -0.7,1.61 -2.25,-5.27 -4.12,-11.01 -5.44,-16.79 z m 64.86,64.75 c -10.2,12.59 -24.35,21.23 -38.01,29.57 -2.88,1.76 -5.91,3.68 -7.41,6.71 -0.36,0.72 -0.6,1.48 -0.79,2.26 l -4.36,-0.05 c 0.14,-0.11 0.26,-0.24 0.36,-0.39 0.36,-0.56 0.43,-1.43 -0.12,-2.03 -0.06,-0.06 -0.12,-0.12 -0.18,-0.17 0.28,-4.35 0.48,-8.81 0.67,-13.13 0.71,-15.88 1.45,-32.3 6.12,-47.42 0.14,-0.44 0.28,-0.88 0.42,-1.3 4.22,0.97 8.79,0.36 12.57,-1.77 4.62,-2.6 7.92,-7.38 8.62,-12.46 0.38,-2.76 -0.5,-5.06 -2.41,-6.29 -2.2,-1.41 -5.4,-1.2 -8.15,0.55 -5.21,3.31 -9.35,8.88 -12.31,16.58 -0.17,-0.07 -0.33,-0.14 -0.49,-0.22 -3.79,-1.75 -7.1,-5.21 -10.11,-10.59 -0.82,-1.46 -1.6,-2.98 -2.36,-4.57 0.62,-1.22 1.21,-2.49 1.76,-3.82 2.66,-6.44 5.15,-16.07 1.97,-25.37 -1.06,-3.1 -4.33,-6.57 -7.76,-6.78 -1.33,-0.08 -3.82,0.29 -5.49,3.72 -2.03,4.18 -0.74,9.81 -0.05,12.83 1.53,6.7 3.79,13.37 6.52,19.34 -2.45,4.46 -6.06,9.2 -11.21,12.26 -1.94,1.15 -4.41,2.08 -7.04,2.58 -0.09,-0.19 -0.18,-0.38 -0.27,-0.58 -2.33,-4.95 -4.98,-8.41 -8.1,-10.58 -3.62,-2.51 -7.66,-1.65 -9.62,0.43 -1.58,1.67 -2.31,4.67 0.35,8.06 3.72,4.74 9.93,6.34 15.99,5.71 3.66,8.81 5.35,18.59 6.98,28.06 l 0.36,2.08 c 2.37,13.68 3.14,24.73 2.42,34.76 0,0.09 0,0.17 0,0.25 l -5.86,-0.07 c -0.17,-0.78 -0.4,-1.55 -0.74,-2.27 -1.42,-3.06 -4.41,-5.05 -7.25,-6.88 -15.67,-10.07 -30.97,-19.83 -40.37,-36.33 -22.13,-38.9 -13.72,-98.05 29.94,-118.08 11.69,-5.36 24.67,-7.93 37.5,-7.86 0.19,0 0.39,0 0.58,0 21.77,0.25 43.41,8.38 56.79,26.13 12.03,15.96 16.6,36.82 16.29,56.36 -0.28,18.02 -4.16,36.42 -15.75,50.73 z m -42.38,-28.54 c 2.74,-7.05 6.49,-12.11 11.16,-15.08 1.83,-1.16 3.93,-1.39 5.22,-0.56 1.28,0.82 1.35,2.42 1.19,3.62 -0.58,4.2 -3.43,8.3 -7.26,10.46 -3.1,1.74 -6.83,2.28 -10.3,1.56 z m -39.72,-1.05 c -4.77,0.32 -9.66,-0.9 -12.65,-4.72 -1.37,-1.75 -1.56,-3.39 -0.51,-4.51 0.65,-0.69 1.72,-1.12 2.93,-1.1 1.01,0.01 2.11,0.33 3.15,1.05 2.67,1.85 4.99,4.89 7.09,9.28 z"
         id="path426-3-3"
         style="fill:#665e68;stroke-width:0px" />
      <rect
         class="cls-6"
         x="395.75"
         y="1213.9399"
         width="8.0100002"
         height="31.6"
         transform="rotate(-89.35,399.70567,1229.7104)"
         id="rect426-5-0"
         style="fill:#dbe78e;stroke-width:0px" />
      <path
         class="cls-19"
         d="m 415.63,1223.18 -31.6,-0.36 c -1.51,-0.02 -2.74,1.19 -2.76,2.7 l -0.09,8.01 c -0.02,1.51 1.19,2.74 2.7,2.76 l 31.6,0.36 c 1.51,0.02 2.74,-1.19 2.76,-2.7 l 0.09,-8.01 c 0.02,-1.51 -1.19,-2.74 -2.7,-2.76 z m -0.12,10.75 -31.6,-0.36 0.09,-8.01 31.6,0.36 z"
         id="path427-2-7"
         style="fill:#665e68;stroke-width:0px" />
      <path
         class="cls-6"
         d="m 375.74,1221.32 48.25,0.55 0.14,-12.24 -48.25,-0.55 z m 42.47,-5.45 c 0,-0.75 0.63,-1.36 1.38,-1.35 0.75,0.01 1.36,0.63 1.35,1.38 l -0.02,1.93 c 0,0.75 -0.63,1.36 -1.38,1.35 -0.75,0 -1.36,-0.63 -1.35,-1.38 z"
         id="path428-2-4"
         style="fill:#dbe78e;stroke-width:0px" />
      <path
         class="cls-6"
         d="m 367.35,1205.43 65.41,0.75 0.19,-16.59 -65.41,-0.75 z m 3.2,-9.1 c 0,-0.75 0.63,-1.36 1.38,-1.35 0.75,0 1.36,0.63 1.35,1.38 l -0.05,4.12 c 0,0.75 -0.63,1.36 -1.38,1.35 -0.75,0 -1.36,-0.63 -1.35,-1.38 z"
         id="path429-8-3"
         style="fill:#dbe78e;stroke-width:0px" />
      <path
         class="cls-6"
         d="m 337.75,1057.33 c -0.98,0.61 -1.51,1.59 -1.94,2.56 -2.39,5.42 -3.35,11.39 -2.79,17.29 0.07,0.7 0.65,1.23 1.34,1.23 0.05,0 0.1,0 0.15,0 0.75,-0.07 1.3,-0.74 1.23,-1.49 -0.52,-5.43 0.37,-10.94 2.57,-15.93 0.23,-0.53 0.51,-1.11 0.89,-1.35 0.64,-0.4 0.83,-1.24 0.43,-1.88 -0.4,-0.64 -1.24,-0.83 -1.88,-0.43 z"
         id="path430-9-1"
         style="fill:#dbe78e;stroke-width:0px" />
      <path
         class="cls-6"
         d="m 459.41,1136.87 c 0.23,0.16 0.5,0.24 0.76,0.24 0.44,0 0.87,-0.2 1.14,-0.59 4.28,-6.16 6.83,-13.38 7.39,-20.86 0.06,-0.75 -0.51,-1.41 -1.26,-1.46 -0.76,-0.06 -1.41,0.51 -1.46,1.26 -0.52,7 -2.91,13.74 -6.91,19.5 -0.43,0.62 -0.28,1.47 0.34,1.9 z"
         id="path431-0-2"
         style="fill:#dbe78e;stroke-width:0px" />
      <path
         class="cls-6"
         d="m 371.86,1201.83 c 0.75,0 1.37,-0.59 1.38,-1.35 l 0.05,-4.12 c 0,-0.75 -0.6,-1.37 -1.35,-1.38 -0.75,0 -1.37,0.59 -1.38,1.35 l -0.05,4.12 c 0,0.75 0.6,1.37 1.35,1.38 z"
         id="path432-0-4"
         style="fill:#dbe78e;stroke-width:0px" />
      <path
         class="cls-6"
         d="m 419.53,1219.18 c 0.75,0 1.37,-0.59 1.38,-1.35 l 0.02,-1.93 c 0,-0.75 -0.6,-1.37 -1.35,-1.38 -0.75,-0.01 -1.37,0.59 -1.38,1.35 l -0.02,1.93 c 0,0.75 0.6,1.37 1.35,1.38 z"
         id="path433-9-9"
         style="fill:#dbe78e;stroke-width:0px" />
    </g>
  </g>
</svg>
