<?xml version="1.0" encoding="UTF-8" standalone="no"?>
<svg
   width="100"
   height="100"
   viewBox="0 0 100 100"
   version="1.1"
   id="svg3"
   sodipodi:docname="graph-paper.svg"
   inkscape:version="1.3.2 (091e20e, 2023-11-25, custom)"
   xmlns:inkscape="http://www.inkscape.org/namespaces/inkscape"
   xmlns:sodipodi="http://sodipodi.sourceforge.net/DTD/sodipodi-0.dtd"
   xmlns="http://www.w3.org/2000/svg"
   xmlns:svg="http://www.w3.org/2000/svg">
  <defs
     id="defs3" />
  <sodipodi:namedview
     id="namedview3"
     pagecolor="#505050"
     bordercolor="#eeeeee"
     borderopacity="1"
     inkscape:showpageshadow="0"
     inkscape:pageopacity="0"
     inkscape:pagecheckerboard="0"
     inkscape:deskcolor="#505050"
     inkscape:zoom="2.0525"
     inkscape:cx="-0.97442144"
     inkscape:cy="-3.6540804"
     inkscape:window-width="1920"
     inkscape:window-height="1017"
     inkscape:window-x="-8"
     inkscape:window-y="-8"
     inkscape:window-maximized="1"
     inkscape:current-layer="g2" />
  <g
     fill-rule="evenodd"
     id="g3">
    <g
       fill="#000"
       id="g2">
      <rect
         style="opacity:1;fill:#ffecd4;fill-opacity:1;stroke-width:1.0443"
         id="rect3"
         width="100"
         height="100"
         x="0"
         y="0"
         sodipodi:insensitive="true" />
      <path
         id="path2"
         style="fill:#fff2e2;fill-opacity:1;stroke-width:2.54359"
         d="m -13.590156,-26.309379 v 12.719223 h -12.719223 v 2.542653 h 12.719223 V 11.84531 h -12.719223 v 2.542653 h 12.719223 v 22.892813 h -12.719223 v 2.542652 h 12.719223 v 22.892813 h -12.719223 v 2.542653 h 12.719223 v 22.892814 h -12.719223 v 2.542653 h 12.719223 v 22.892809 h -12.719223 v 2.54563 h 12.719223 v 10.17657 h 2.542653 V 116.1328 H 11.84531 v 10.17657 h 2.542653 V 116.1328 h 22.892813 v 10.17657 h 2.542652 V 116.1328 h 22.892813 v 10.17657 h 2.542653 V 116.1328 h 22.892814 v 10.17657 h 2.542653 V 116.1328 h 22.892809 v 10.17657 h 2.54563 V 116.1328 h 10.17657 v -2.54563 H 116.1328 V 90.694361 h 10.17657 V 88.151708 H 116.1328 V 65.258894 h 10.17657 V 62.716241 H 116.1328 V 39.823428 h 10.17657 V 37.280776 H 116.1328 V 14.387963 h 10.17657 V 11.84531 H 116.1328 v -22.892813 h 10.17657 v -2.542653 H 116.1328 v -12.719223 h -2.54563 v 12.719223 H 90.694361 v -12.719223 h -2.542653 v 12.719223 H 65.258894 v -12.719223 h -2.542653 v 12.719223 H 39.823428 v -12.719223 h -2.542652 v 12.719223 H 14.387963 V -26.309379 H 11.84531 v 12.719223 h -22.892813 v -12.719223 z m 2.542653,15.261876 H 11.84531 V 11.84531 h -22.892813 z m 25.435466,0 H 37.280776 V 11.84531 H 14.387963 Z m 25.435465,0 H 62.716241 V 11.84531 H 39.823428 Z m 25.435466,0 H 88.151708 V 11.84531 H 65.258894 Z m 25.435467,0 H 113.58717 V 11.84531 H 90.694361 Z M -11.047503,14.387963 H 11.84531 v 22.892813 h -22.892813 z m 25.435466,0 H 37.280776 V 37.280776 H 14.387963 Z m 25.435465,0 H 62.716241 V 37.280776 H 39.823428 Z m 25.435466,0 H 88.151708 V 37.280776 H 65.258894 Z m 25.435467,0 H 113.58717 V 37.280776 H 90.694361 Z M -11.047503,39.823428 H 11.84531 v 22.892813 h -22.892813 z m 25.435466,0 H 37.280776 V 62.716241 H 14.387963 Z m 25.435465,0 H 62.716241 V 62.716241 H 39.823428 Z m 25.435466,0 H 88.151708 V 62.716241 H 65.258894 Z m 25.435467,0 H 113.58717 V 62.716241 H 90.694361 Z M -11.047503,65.258894 H 11.84531 v 22.892814 h -22.892813 z m 25.435466,0 H 37.280776 V 88.151708 H 14.387963 Z m 25.435465,0 H 62.716241 V 88.151708 H 39.823428 Z m 25.435466,0 H 88.151708 V 88.151708 H 65.258894 Z m 25.435467,0 H 113.58717 V 88.151708 H 90.694361 Z M -11.047503,90.694361 H 11.84531 v 22.892809 h -22.892813 z m 25.435466,0 H 37.280776 V 113.58717 H 14.387963 Z m 25.435465,0 H 62.716241 V 113.58717 H 39.823428 Z m 25.435466,0 H 88.151708 V 113.58717 H 65.258894 Z m 25.435467,0 H 113.58717 V 113.58717 H 90.694361 Z" />
    </g>
  </g>
</svg>
